<svg width="100" height="100" viewBox="0 0 100 100" fill="none" xmlns="http://www.w3.org/2000/svg">
<path d="M85.3552 14.6446C75.9116 5.20098 63.3554 0 50 0C38.6871 0 28.0152 3.68565 19.1386 10.6584C18.5016 11.1588 18.3907 12.0808 18.8912 12.718C19.3916 13.3552 20.3138 13.4659 20.9508 12.9654C29.3056 6.4026 39.3507 2.93365 50 2.93365C62.5719 2.93365 74.3912 7.82933 83.2809 16.7191C92.1707 25.6088 97.0664 37.4281 97.0664 50C97.0664 62.5719 92.1707 74.3912 83.2809 83.2809C74.3912 92.1707 62.5719 97.0664 50 97.0664C37.4281 97.0664 25.6088 92.1707 16.7191 83.2809C7.82933 74.3912 2.93365 62.5719 2.93365 50C2.93365 37.5873 7.72607 25.8738 16.4279 17.0173C16.9956 16.4394 16.9874 15.5108 16.4097 14.9431C15.8319 14.3753 14.9032 14.3835 14.3354 14.9612C5.09106 24.3697 0 36.8132 0 50C0 63.3556 5.20098 75.9116 14.6446 85.3552C24.0882 94.7989 36.6445 99.9998 49.9998 99.9998C63.3552 99.9998 75.9114 94.7989 85.355 85.3552C94.7986 75.9116 99.9996 63.3554 99.9996 50C99.9996 36.6447 94.799 24.0884 85.3552 14.6446Z" fill="#08612E"/>
<path d="M23.7398 24.4004C27.204 20.8458 31.2603 18.0698 35.7959 16.1492C40.5033 14.1561 45.4981 13.1888 50.6363 13.277C53.7507 13.3298 56.841 13.7751 59.8216 14.6006C60.6025 14.8172 61.4106 14.3593 61.6267 13.5786C61.8428 12.7978 61.3854 11.9895 60.6047 11.7734C57.3853 10.8818 54.0481 10.4008 50.6862 10.3437C45.133 10.2497 39.7391 11.2938 34.652 13.4479C29.7551 15.5214 25.377 18.5175 21.6389 22.3529C17.8987 26.1905 15.0145 30.6477 13.0666 35.6003C11.0431 40.7448 10.1376 46.1681 10.3749 51.72C10.6133 57.2992 11.9899 62.6537 14.4665 67.6342C14.8336 68.3725 15.5044 68.9033 16.3067 69.0907C16.5148 69.1392 16.725 69.1631 16.9339 69.1631C17.5285 69.1631 18.1111 68.9694 18.5949 68.601L76.2772 24.6777C76.9306 24.18 77.3241 23.4241 77.3566 22.6037C77.3893 21.7787 77.0542 20.989 76.4376 20.4371C73.5258 17.8312 70.2552 15.6744 66.7162 14.0266C65.9816 13.6848 65.1092 14.0028 64.7673 14.7372C64.4252 15.4716 64.7435 16.3442 65.4778 16.6861C68.6904 18.1819 71.6641 20.1306 74.3205 22.4802L63.4014 30.7948C61.1859 29.2585 58.7613 28.133 56.2038 27.4389L56.8052 23.7155C56.9345 22.9158 56.3908 22.1628 55.591 22.0335C54.7921 21.9045 54.0384 22.448 53.9091 23.2477L53.3272 26.8498C52.234 26.6965 51.1239 26.6143 49.9999 26.6143C48.5507 26.6143 47.104 26.7471 45.6843 27.01L44.6116 24.7454C45.5202 23.6332 45.7962 22.0883 45.2466 20.6864C44.4271 18.5961 42.0595 17.5623 39.9693 18.3813L35.9217 19.9681C33.8314 20.7873 32.7971 23.1548 33.6164 25.2453C34.1343 26.5664 35.2863 27.4917 36.6242 27.7536L37.4108 30.2542C35.9913 31.1517 34.6735 32.1965 33.4742 33.3754L31.3164 32.0942C31.4488 30.6643 30.815 29.2286 29.5762 28.3728C28.6812 27.7546 27.5993 27.5214 26.5293 27.7172C25.4593 27.9128 24.5295 28.5132 23.9113 29.4082L21.4398 32.9851C20.8214 33.8798 20.5887 34.962 20.7842 36.032C20.9798 37.102 21.5802 38.0317 22.4752 38.6499C23.6426 39.4567 25.1147 39.5807 26.3707 39.0505L28.4178 40.6839C27.8571 41.9546 27.4108 43.2724 27.0836 44.6225L24.579 44.672C23.9373 43.3872 22.6416 42.502 21.1376 42.4281C20.0522 42.3747 19.0092 42.7477 18.2032 43.4783C17.3974 44.2088 16.9241 45.2094 16.8709 46.2956L16.658 50.6382C16.6048 51.7244 16.9777 52.7665 17.7082 53.5725C18.4387 54.3784 19.4393 54.8515 20.5257 54.9049C21.9413 54.9724 23.2593 54.3033 24.0467 53.1905L26.6508 53.4987C26.8639 55.0184 27.2273 56.5098 27.7315 57.9565L16.9959 66.1312C14.7646 61.5768 13.5233 56.6874 13.3056 51.5948C13.0859 46.455 13.924 41.435 15.7964 36.6742C17.601 32.0866 20.2734 27.9572 23.7398 24.4004ZM38.3627 48.3302C37.1675 46.4877 37.9291 43.864 40.0605 42.4815C41.1178 41.7958 42.3421 41.5187 43.5065 41.7019C44.6121 41.8756 45.531 42.4488 46.0934 43.316C46.1903 43.4652 46.2712 43.6227 46.3436 43.7842L39.2021 49.2222C38.8702 48.9742 38.5856 48.674 38.3627 48.3302ZM29.4367 52.0485C29.3753 51.3572 28.8375 50.8033 28.1481 50.7217L23.3817 50.1575C22.6792 50.0734 22.0193 50.5031 21.8089 51.1772C21.6546 51.672 21.1871 52.0006 20.6692 51.9746C20.0424 51.9439 19.5574 51.4088 19.5883 50.782L19.8013 46.4394C19.8161 46.1356 19.9483 45.856 20.1736 45.6518C20.399 45.4476 20.6904 45.3432 20.9941 45.3584C21.5442 45.3854 21.9945 45.8014 22.0649 46.3475C22.1605 47.0903 22.8034 47.6404 23.5487 47.6267L28.3016 47.5327C28.9957 47.519 29.5852 47.0204 29.7139 46.3385C30.0696 44.4551 30.6873 42.6321 31.5494 40.9208C31.8615 40.301 31.6966 39.5473 31.1541 39.1142L27.4055 36.1233C26.8536 35.683 26.066 35.6985 25.5315 36.1601C25.1395 36.499 24.5685 36.5305 24.1427 36.2365C23.8925 36.0636 23.7247 35.8037 23.67 35.5047C23.6154 35.2056 23.6805 34.9031 23.8534 34.6529L26.3249 31.076C26.4978 30.8259 26.7575 30.6581 27.0568 30.6033C27.356 30.5482 27.6584 30.6139 27.9085 30.7866C28.3617 31.0997 28.5248 31.6907 28.2965 32.1918C27.9862 32.8732 28.2386 33.679 28.8825 34.0613L32.9732 36.49C33.5695 36.8442 34.332 36.7323 34.8016 36.2219C36.2767 34.6185 37.9846 33.2643 39.8782 32.1971C40.4819 31.8568 40.7651 31.1402 40.5571 30.4791L39.1178 25.9034C38.906 25.2299 38.2445 24.8021 37.5426 24.8874C37.0277 24.9492 36.5368 24.6566 36.3482 24.1751C36.1192 23.5907 36.4083 22.9289 36.9927 22.6999L41.0403 21.1132C41.6243 20.8841 42.2865 21.1732 42.5156 21.7576C42.7166 22.2704 42.5218 22.8516 42.0526 23.1399C41.4145 23.5317 41.1739 24.3412 41.4945 25.0179L43.529 29.3127C43.8257 29.9391 44.5202 30.2722 45.1948 30.1115C46.7627 29.7377 48.3793 29.5482 50.0001 29.5482C53.9177 29.5482 57.6571 30.6272 60.9276 32.6786L48.7126 41.9798C48.6616 41.8922 48.6099 41.8048 48.5546 41.7193C47.5327 40.1438 45.9018 39.1082 43.962 38.8035C42.0814 38.5083 40.1291 38.94 38.464 40.02C34.9757 42.2828 33.8261 46.7267 35.9013 49.9263C36.1644 50.3317 36.4742 50.7016 36.8198 51.0356L30.2054 56.0723C29.8168 54.7633 29.5582 53.4166 29.4367 52.0485Z" fill="#08612E"/>
<path d="M76.2599 75.599C72.7956 79.1536 68.7392 81.9299 64.2038 83.85C59.4964 85.8432 54.502 86.8099 49.3634 86.7223C47.6529 86.6933 45.932 86.5443 44.2479 86.2793C43.4476 86.1532 42.6968 86.7 42.571 87.5003C42.4451 88.3006 42.9917 89.0514 43.792 89.1772C45.6099 89.4631 47.4677 89.6241 49.3135 89.6553C49.5437 89.6593 49.7733 89.6612 50.0027 89.6612C55.3121 89.6612 60.4712 88.6161 65.3475 86.5513C70.2443 84.4778 74.6225 81.482 78.3608 77.6463C82.101 73.8087 84.9852 69.3517 86.9331 64.3989C88.9565 59.2545 89.8623 53.831 89.625 48.2793C89.3866 42.6999 88.0099 37.3456 85.5334 32.3648C85.1663 31.6265 84.4954 31.0957 83.6932 30.9086C82.8925 30.7214 82.0587 30.9 81.4051 31.3981L23.7227 75.3215C23.0693 75.8193 22.6758 76.5752 22.6433 77.3956C22.6106 78.2206 22.9457 79.0103 23.5623 79.5622C27.6319 83.2042 32.3122 85.9216 37.4737 87.6391C38.2419 87.8954 39.0729 87.4792 39.3285 86.7105C39.5844 85.9419 39.1686 85.1113 38.3999 84.8557C33.6891 83.288 29.4104 80.8202 25.6792 77.519L36.3319 69.4073C37.113 69.9643 37.9218 70.4728 38.7567 70.9271L37.9145 73.2155C37.6346 73.976 38.0242 74.8189 38.7844 75.0988C38.9515 75.1602 39.1226 75.1893 39.2908 75.1893C39.8881 75.1893 40.4492 74.8218 40.6677 74.2286L41.4267 72.1657C43.2747 72.887 45.2127 73.3753 47.2062 73.6104L47.5553 76.0938C46.3564 76.8846 45.6324 78.2769 45.739 79.7787C45.816 80.8636 46.3108 81.8536 47.1324 82.5665C47.8795 83.2144 48.8152 83.5627 49.7944 83.5627C49.8922 83.5627 49.9904 83.5592 50.089 83.5522L54.4257 83.2445C56.6652 83.0857 58.3582 81.1343 58.1992 78.8945C58.0986 77.4791 57.2751 76.2525 56.0762 75.6037L56.0709 72.985C57.6957 72.5533 59.2662 71.9494 60.7624 71.1804L62.4367 73.0429C61.8838 74.3685 62.061 75.9276 62.9882 77.114C63.6581 77.971 64.6215 78.5157 65.7011 78.6481C66.7803 78.7805 67.8472 78.4846 68.704 77.8147L72.1295 75.1375C73.8985 73.7548 74.2128 71.1907 72.8303 69.4216C71.9562 68.3034 70.5884 67.7455 69.2313 67.8775L67.7613 65.7036C68.6756 64.6575 69.4953 63.5339 70.2107 62.3462L72.6175 63.0459C72.8469 64.4639 73.8197 65.695 75.2333 66.2139C76.2544 66.5888 77.3602 66.5434 78.3473 66.0864C79.3342 65.6295 80.0842 64.8153 80.4589 63.7944L81.957 59.7129C82.7307 57.6052 81.6453 55.2608 79.5374 54.4873C78.2049 53.9982 76.7486 54.2466 75.6653 55.0738L73.2724 54.0037C73.4768 52.7463 73.5803 51.4698 73.5803 50.1948C73.5803 49.6616 73.5613 49.1312 73.5263 48.6036L75.9996 48.242C76.8012 48.1248 77.3561 47.38 77.2387 46.5784C77.1216 45.7767 76.377 45.2215 75.5752 45.3392L73.1508 45.6938C72.9163 44.481 72.587 43.2892 72.1618 42.1235L83.0036 33.8678C85.2349 38.4222 86.4762 43.3117 86.6939 48.4045C86.9135 53.5442 86.0755 58.5643 84.203 63.3252C82.3987 67.9131 79.7261 72.0425 76.2599 75.599ZM64.0473 49.9996C64.0473 51.6716 62.6871 53.0318 61.0151 53.0318C60.2283 53.0318 59.4862 52.722 58.9318 52.1981L63.6876 48.5766C63.9188 49.0102 64.0473 49.496 64.0473 49.9996ZM70.6468 50.1952C70.6468 51.6622 70.4908 53.1314 70.1829 54.5616C70.037 55.2391 70.3854 55.9264 71.018 56.2092L75.3962 58.1675C76.0408 58.4558 76.7997 58.2439 77.2014 57.6629C77.4963 57.2365 78.0416 57.0634 78.5268 57.2416C79.1161 57.4577 79.4194 58.1131 79.2031 58.7024L77.705 62.7839C77.4887 63.3731 76.8329 63.6763 76.244 63.4602C75.7269 63.2705 75.4211 62.7391 75.5169 62.1969C75.6471 61.4594 75.2008 60.7424 74.4819 60.5336L69.9179 59.2066C69.252 59.0128 68.542 59.3118 68.2152 59.923C67.3123 61.6102 66.1775 63.1656 64.8425 64.546C64.3602 65.0445 64.2931 65.8128 64.6817 66.3874L67.3709 70.364C67.7666 70.9492 68.5231 71.1692 69.1706 70.8876C69.6459 70.6809 70.2007 70.8211 70.5191 71.2289C70.9056 71.7233 70.8178 72.4403 70.3234 72.8267L66.8978 75.504C66.6582 75.6914 66.3602 75.7743 66.0584 75.7369C65.7566 75.7 65.4873 75.5476 65.3002 75.308C64.961 74.874 64.9814 74.2613 65.3489 73.851C65.8484 73.2932 65.8476 72.4487 65.3469 71.8919L62.1692 68.357C61.7051 67.8409 60.9429 67.7202 60.3425 68.0687C58.4595 69.1609 56.4261 69.943 54.2986 70.3934C53.6195 70.5371 53.1341 71.1372 53.1355 71.8315L53.1451 76.6274C53.1464 77.3336 53.651 77.9387 54.3455 78.0668C54.8552 78.1609 55.2368 78.5869 55.2733 79.1028C55.3179 79.7288 54.8446 80.2743 54.2184 80.3187L49.8815 80.6265C49.5795 80.6471 49.2848 80.5503 49.0552 80.351C48.8254 80.1517 48.6871 79.8749 48.6656 79.5716C48.6265 79.0222 48.9857 78.5253 49.5197 78.3901C50.2454 78.2065 50.7164 77.5055 50.6121 76.7641L49.9501 72.0534C49.8535 71.366 49.2883 70.8405 48.5958 70.7941C45.0783 70.558 41.7261 69.4364 38.7927 67.5342L56.5853 53.9857C57.6998 55.2219 59.3038 55.9661 61.0153 55.9661C64.3049 55.9661 66.9811 53.2898 66.9811 50.0002C66.9811 48.8463 66.6473 47.736 66.0394 46.7867L69.6995 43.9997C70.3277 45.9942 70.6468 48.0704 70.6468 50.1952Z" fill="#08612E"/>
<path d="M55.2093 58.6104C52.728 58.6104 50.7095 60.6289 50.7095 63.1102C50.7095 65.5915 52.728 67.61 55.2093 67.61C57.6906 67.61 59.7091 65.5915 59.7091 63.1102C59.7091 60.6289 57.6906 58.6104 55.2093 58.6104ZM55.2093 64.6764C54.3456 64.6764 53.6431 63.9739 53.6431 63.1102C53.6431 62.2465 54.3456 61.544 55.2093 61.544C56.073 61.544 56.7755 62.2465 56.7755 63.1102C56.7755 63.9739 56.073 64.6764 55.2093 64.6764Z" fill="#08612E"/>
</svg>
