<svg width="54" height="54" viewBox="0 0 54 54" fill="none" xmlns="http://www.w3.org/2000/svg">
<path d="M1 10C1 5.02944 5.02944 1 10 1H44C48.9706 1 53 5.02944 53 10V44C53 48.9706 48.9706 53 44 53H10C5.02944 53 1 48.9706 1 44V10Z" fill="#3B5998" stroke="#D6D6D6" stroke-width="2"/>
<path d="M28.2285 28.2254H27.7285V28.7254V37.5H22.957V28.7254V28.2254H22.457H19.5658L20.0131 24.6166H22.457H22.957V24.1166V21.7895C22.957 18.9653 25.8547 16.5 29.6714 16.5H33.5V20.1316H29.6714C28.7066 20.1316 27.7285 20.7768 27.7285 21.7895V24.1166V24.6166H28.2285H33.4342L32.9869 28.2254H28.2285Z" stroke="white"/>
</svg>
