<svg width="54" height="54" viewBox="0 0 54 54" fill="none" xmlns="http://www.w3.org/2000/svg">
<path d="M1 10C1 5.02944 5.02944 1 10 1H44C48.9706 1 53 5.02944 53 10V44C53 48.9706 48.9706 53 44 53H10C5.02944 53 1 48.9706 1 44V10Z" fill="url(#paint0_linear)" stroke="#D6D6D6" stroke-width="2"/>
<path d="M31.3748 18.2498C32.5342 18.2533 33.6451 18.7154 34.4648 19.5352C35.2846 20.3549 35.7467 21.4658 35.7502 22.6252V31.3748C35.7467 32.5342 35.2846 33.6451 34.4648 34.4648C33.6451 35.2846 32.5342 35.7467 31.3748 35.7502H22.6252C21.4658 35.7467 20.3549 35.2846 19.5352 34.4648C18.7154 33.6451 18.2533 32.5342 18.2498 31.3748V22.6252C18.2533 21.4658 18.7154 20.3549 19.5352 19.5352C20.3549 18.7154 21.4658 18.2533 22.6252 18.2498H31.3748ZM31.3748 16.5H22.6252C19.2562 16.5 16.5 19.2562 16.5 22.6252V31.3748C16.5 34.7437 19.2562 37.5 22.6252 37.5H31.3748C34.7437 37.5 37.5 34.7437 37.5 31.3748V22.6252C37.5 19.2562 34.7437 16.5 31.3748 16.5Z" fill="white"/>
<path d="M32.6873 22.625C32.4278 22.625 32.174 22.548 31.9582 22.4038C31.7423 22.2596 31.5741 22.0546 31.4748 21.8148C31.3754 21.5749 31.3494 21.311 31.4001 21.0564C31.4507 20.8018 31.5757 20.568 31.7593 20.3844C31.9428 20.2009 32.1767 20.0759 32.4313 20.0252C32.6859 19.9746 32.9498 20.0006 33.1896 20.0999C33.4294 20.1992 33.6344 20.3675 33.7787 20.5833C33.9229 20.7992 33.9998 21.0529 33.9998 21.3125C34.0002 21.485 33.9665 21.6558 33.9007 21.8152C33.8349 21.9746 33.7382 22.1195 33.6163 22.2414C33.4943 22.3634 33.3495 22.46 33.1901 22.5258C33.0306 22.5917 32.8598 22.6254 32.6873 22.625ZM27 23.4997C27.6923 23.4997 28.369 23.705 28.9446 24.0896C29.5202 24.4742 29.9688 25.0208 30.2337 25.6604C30.4986 26.3 30.568 27.0037 30.4329 27.6827C30.2978 28.3617 29.9645 28.9853 29.475 29.4748C28.9855 29.9643 28.3618 30.2977 27.6828 30.4327C27.0039 30.5678 26.3001 30.4985 25.6606 30.2336C25.021 29.9686 24.4743 29.52 24.0897 28.9444C23.7051 28.3688 23.4998 27.6921 23.4998 26.9998C23.5008 26.0718 23.8699 25.1821 24.5261 24.526C25.1823 23.8698 26.072 23.5007 27 23.4997ZM27 21.7498C25.9617 21.7498 24.9466 22.0578 24.0833 22.6346C23.2199 23.2115 22.547 24.0314 22.1496 24.9908C21.7523 25.9501 21.6483 27.0057 21.8509 28.0241C22.0535 29.0425 22.5535 29.9779 23.2877 30.7122C24.0219 31.4464 24.9574 31.9464 25.9758 32.149C26.9942 32.3515 28.0498 32.2476 29.0091 31.8502C29.9684 31.4529 30.7883 30.7799 31.3652 29.9166C31.9421 29.0532 32.25 28.0382 32.25 26.9998C32.25 25.6075 31.6969 24.2721 30.7123 23.2875C29.7277 22.303 28.3924 21.7498 27 21.7498Z" fill="white"/>
<defs>
<linearGradient id="paint0_linear" x1="27" y1="0" x2="27" y2="54" gradientUnits="userSpaceOnUse">
<stop stop-color="#515BD4"/>
<stop offset="0.208333" stop-color="#8134AF"/>
<stop offset="0.479167" stop-color="#DD2A7B"/>
<stop offset="0.661458" stop-color="#F58529"/>
<stop offset="1" stop-color="#FEDA77"/>
</linearGradient>
</defs>
</svg>
