<svg width="54" height="54" viewBox="0 0 54 54" fill="none" xmlns="http://www.w3.org/2000/svg">
<path d="M1 10C1 5.02944 5.02944 1 10 1H44C48.9706 1 53 5.02944 53 10V44C53 48.9706 48.9706 53 44 53H10C5.02944 53 1 48.9706 1 44V10Z" fill="#00ACEE" stroke="#D6D6D6" stroke-width="2"/>
<path d="M36.576 21.0477C35.856 21.3597 35.112 21.5757 34.32 21.6717C35.136 21.1917 35.76 20.4237 36.048 19.4877C35.28 19.9437 34.44 20.2557 33.552 20.4477C32.832 19.6797 31.8 19.1997 30.672 19.1997C28.488 19.1997 26.736 20.9757 26.736 23.1357C26.736 23.4477 26.76 23.7357 26.832 24.0237C23.568 23.8797 20.688 22.2957 18.744 19.9197C17.352 22.4157 18.912 24.4797 19.944 25.1757C19.32 25.1757 18.696 24.9837 18.168 24.6957C18.168 26.6397 19.536 28.2477 21.312 28.6077C20.928 28.7277 20.064 28.7997 19.536 28.6797C20.04 30.2397 21.504 31.3917 23.208 31.4157C21.864 32.4717 19.896 33.3117 17.376 33.0477C19.128 34.1757 21.192 34.8237 23.424 34.8237C30.672 34.8237 34.608 28.8237 34.608 23.6397C34.608 23.4717 34.608 23.3037 34.584 23.1357C35.4 22.5357 36.072 21.8397 36.576 21.0477Z" fill="white"/>
</svg>
