<svg width="54" height="54" viewBox="0 0 54 54" fill="none" xmlns="http://www.w3.org/2000/svg">
<path d="M1 10C1 5.02944 5.02944 1 10 1H44C48.9706 1 53 5.02944 53 10V44C53 48.9706 48.9706 53 44 53H10C5.02944 53 1 48.9706 1 44V10Z" fill="#075E54" stroke="#D6D6D6" stroke-width="2"/>
<path fill-rule="evenodd" clip-rule="evenodd" d="M34.9589 19.0081C32.8539 16.9006 30.0545 15.7395 27.0721 15.7383C20.9266 15.7383 15.9251 20.7397 15.9226 26.8868C15.9218 28.8518 16.4351 30.77 17.4109 32.4608L15.8291 38.2383L21.7396 36.6878C23.3682 37.5762 25.2017 38.0444 27.0676 38.0449H27.0722C33.217 38.0449 38.2191 33.0431 38.2214 26.8957C38.2227 23.9165 37.064 21.1154 34.9589 19.0081ZM27.0721 36.162H27.0683C25.4055 36.1613 23.7747 35.7144 22.3517 34.8703L22.0134 34.6694L18.5061 35.5895L19.4422 32.1698L19.2218 31.8192C18.2942 30.3438 17.8043 28.6384 17.8051 26.8875C17.8071 21.7782 21.9643 17.6213 27.0758 17.6213C29.551 17.6222 31.8778 18.5873 33.6274 20.3389C35.3769 22.0906 36.3399 24.4189 36.3391 26.895C36.3369 32.0048 32.1799 36.162 27.0721 36.162ZM32.1552 29.2215C31.8767 29.082 30.507 28.4083 30.2515 28.3152C29.9964 28.2222 29.8104 28.1759 29.6249 28.4547C29.4391 28.7335 28.9053 29.3611 28.7427 29.5469C28.5801 29.7328 28.4178 29.7561 28.1391 29.6166C27.8605 29.4772 26.9629 29.1829 25.8988 28.2339C25.0707 27.4952 24.5116 26.5829 24.349 26.3041C24.1867 26.0251 24.3476 25.8888 24.4712 25.7356C24.7728 25.3611 25.0748 24.9684 25.1676 24.7826C25.2606 24.5967 25.214 24.434 25.1443 24.2946C25.0748 24.1552 24.5176 22.7839 24.2856 22.226C24.0592 21.683 23.8298 21.7563 23.6586 21.7478C23.4963 21.7397 23.3105 21.7381 23.1247 21.7381C22.939 21.7381 22.6372 21.8077 22.3818 22.0867C22.1265 22.3656 21.4069 23.0395 21.4069 24.4107C21.4069 25.782 22.4051 27.1067 22.5444 27.2926C22.6836 27.4785 24.5088 30.2924 27.3034 31.499C27.968 31.7863 28.4869 31.9575 28.8916 32.0859C29.559 32.298 30.1661 32.268 30.6462 32.1963C31.1815 32.1163 32.2943 31.5223 32.5267 30.8717C32.7588 30.2209 32.7588 29.6632 32.689 29.5469C32.6195 29.4307 32.4337 29.3611 32.1552 29.2215Z" fill="white"/>
</svg>
