<svg width="24" height="25" viewBox="0 0 24 25" fill="none" xmlns="http://www.w3.org/2000/svg">
<path d="M18 8.95913C18 7.37064 17.3679 5.84721 16.2426 4.72398C15.1174 3.60075 13.5913 2.96973 12 2.96973C10.4087 2.96973 8.88258 3.60075 7.75736 4.72398C6.63214 5.84721 6 7.37064 6 8.95913C6 15.9468 3 17.9432 3 17.9432H21C21 17.9432 18 15.9468 18 8.95913Z" stroke="#1A3D6F" stroke-width="1.5" stroke-linecap="round" stroke-linejoin="round"/>
<path d="M13.73 21.9365C13.5542 22.2391 13.3019 22.4902 12.9982 22.6648C12.6946 22.8393 12.3504 22.9312 12 22.9312C11.6496 22.9312 11.3054 22.8393 11.0018 22.6648C10.6982 22.4902 10.4458 22.2391 10.27 21.9365" stroke="#1A3D6F" stroke-width="1.5" stroke-linecap="round" stroke-linejoin="round"/>
</svg>
