<svg width="316" height="315" viewBox="0 0 316 315" fill="none" xmlns="http://www.w3.org/2000/svg">
<g clip-path="url(#clip0)">
<path d="M306.56 173.045C333.07 276.93 305.995 320.814 197.23 314.339C104.425 308.778 0 261.064 0 168.184C0 75.3037 7.1628 0 100.143 0C193.123 0 283.592 83.0615 306.56 173.045Z" fill="#DDE7F4"/>
<path d="M76.5524 72.6206L68.4553 93.6776L143.82 165.443L248.226 168.184L257.394 147.555L235.574 126.828L189.289 82.8283L181.016 75.2066L76.5524 72.6206Z" fill="#63BBE3"/>
<path d="M164.413 75.9268L165.873 80.3793L190.437 86.1345L188.101 81.7209L180.705 75.188L164.413 75.9268Z" fill="#97D2ED"/>
<path d="M79.3165 72.6206L152.541 165.657L143.821 165.443L69.02 92.2L79.3165 72.6206Z" fill="#2FA4DB"/>
<path d="M239.837 130.853L248.226 168.184L257.394 147.555L239.837 130.853Z" fill="#2FA4DB"/>
<path d="M104.678 39.8586C104.678 39.9947 87.4521 105.518 161.221 115.376C161.221 115.376 179.186 80.6894 144.579 51.0579C144.579 51.0579 124.317 35.5033 104.678 39.8586Z" fill="#E43A3A"/>
<path d="M121.417 62.082C121.417 62.082 116.434 98.5381 158.399 109.601C158.341 109.601 162.778 70.3454 121.417 62.082Z" fill="white"/>
<path d="M121.962 73.748C121.962 73.748 128.327 105.207 158.263 108.979C158.263 108.979 159.45 87.5916 144.443 73.748H121.962Z" fill="#63BBE3"/>
<path d="M165.873 115.901C165.873 115.901 177.902 78.3369 222.319 81.7978C222.319 81.7978 244.917 82.6922 259.048 102.116C259.009 102.116 221.891 161.379 165.873 115.901Z" fill="#E43A3A"/>
<path d="M159.995 72.5427L159.158 108.707L116.337 96.5551C116.337 96.5551 139.422 118.779 162.117 114.929C162.117 114.929 170.331 86.4835 160.015 72.5427" fill="#B81919"/>
<path d="M195.42 85.3945L172.199 113.14L212.451 132.214C212.451 132.214 180.432 133.75 165.873 115.92C165.873 115.92 178.467 89.1082 195.42 85.414" fill="#B81919"/>
<path d="M126.342 42.5608C126.342 42.5608 105.476 46.2745 101.797 52.3797L102.42 42.0359C102.42 42.0359 120.775 37.9333 126.342 42.5608Z" fill="#EB6F6F"/>
<path d="M239.837 87.8443C239.837 87.8443 253.987 103.574 253.15 110.651L258.99 102.116C258.99 102.116 247.058 87.5916 239.837 87.8443Z" fill="#EB6F6F"/>
<path d="M205.268 98.0134C187.517 96.8468 172.179 113.14 172.179 113.14C199.702 130.639 221.871 113.937 221.871 113.937L205.249 98.0134" fill="#63BBE3"/>
<path d="M231.623 105.83L221.891 114.404L205.113 97.0801C205.113 97.0801 227.73 100.23 231.623 105.83Z" fill="white"/>
<path d="M145.65 173.064L111.276 257.973L199.994 260.85L234.212 175.67L145.65 173.064Z" fill="#63BBE3"/>
<path d="M214.183 225.542L174.846 260.85H199.994L214.183 225.542Z" fill="#97D2ED"/>
<path d="M141.854 183.116L231.857 181.93L234.212 175.67L145.65 173.064L141.854 183.116Z" fill="#2FA4DB"/>
<path d="M162.915 173.57L127.159 258.614L111.276 257.973L145.65 173.064L162.915 173.57Z" fill="#2FA4DB"/>
<path d="M74.4502 109.718L51.1906 165.656L39.9014 192.838L104.658 254.162L139.168 170.809L74.4502 109.718Z" fill="#63BBE3"/>
<path d="M128.872 161.087L96.3474 245.665L104.659 254.162L139.168 170.809L128.872 161.087Z" fill="#2FA4DB"/>
<path d="M134.75 182.143L71.9392 117.728L74.7031 111.623L139.168 172.344L134.75 182.143Z" fill="#2FA4DB"/>
<path d="M51.9107 166.745L56.7962 208.84L39.9014 192.838L51.9107 166.745Z" fill="#97D2ED"/>
<path d="M162.039 74.7204C156.945 61.3231 146.789 50.4591 133.757 44.4667C131.572 43.4518 129.315 42.6005 127.003 41.9197C121.807 40.2921 116.391 39.4724 110.945 39.4893C109.408 39.4893 107.87 39.4893 106.371 39.6837C105.788 39.6837 105.223 39.7809 104.639 39.8587C103.71 43.0699 103.059 46.3549 102.693 49.6775C102.474 51.7573 102.363 53.847 102.362 55.9383C102.362 57.0271 102.362 58.1353 102.459 59.2047C102.556 60.2741 102.595 61.149 102.712 62.2184C103.144 65.9885 103.946 69.7071 105.106 73.3205C108.602 84.7566 115.472 94.8724 124.818 102.345C134.163 109.817 145.548 114.298 157.484 115.201C158.717 115.292 159.963 115.35 161.221 115.376C162.03 113.477 162.719 111.529 163.285 109.543C166.701 98.0933 166.264 85.8398 162.039 74.6621V74.7204ZM158.263 108.979C149.402 107.362 141.223 103.148 134.766 96.8746C128.309 90.6011 123.866 82.5511 122.001 73.7483C121.35 70.6735 121.024 67.5389 121.028 64.3961C121.028 63.5211 121.028 62.6656 121.028 61.8101C131.498 63.6899 140.973 69.1879 147.794 77.3419C154.615 85.496 158.349 95.7866 158.341 106.413C158.341 107.268 158.321 108.124 158.263 108.979Z" stroke="#242424" stroke-width="5" stroke-linecap="round" stroke-linejoin="round"/>
<path d="M257.9 100.775C256.946 99.6274 255.953 98.4997 254.805 97.4108C250.975 93.5619 246.577 90.3225 241.764 87.8059C239.647 86.6595 237.448 85.6717 235.185 84.8505C222.843 80.2959 209.27 80.3451 196.961 84.9889C184.653 89.6328 174.436 98.5591 168.189 110.127C167.208 111.922 166.331 113.772 165.562 115.668C166.477 116.543 167.391 117.379 168.345 118.176C177.349 125.908 188.463 130.771 200.257 132.14C212.051 133.509 223.985 131.32 234.523 125.856C238.075 124.03 241.428 121.841 244.528 119.323C245.306 118.701 246.085 118.04 246.844 117.379C247.603 116.718 248.44 115.921 249.219 115.143C250.697 113.659 252.1 112.101 253.423 110.477C255.526 107.885 257.408 105.12 259.048 102.213C258.659 101.649 258.289 101.222 257.9 100.775ZM172.257 113.14C172.828 112.505 173.412 111.857 174.009 111.196C181.526 103.699 191.436 99.071 202.015 98.1155C212.594 97.16 223.173 99.9377 231.915 105.966C231.351 106.607 230.747 107.23 230.144 107.91C222.633 115.413 212.725 120.044 202.146 120.996C191.567 121.948 180.99 119.161 172.257 113.121V113.14Z" stroke="#242424" stroke-width="5" stroke-linecap="round" stroke-linejoin="round"/>
<path d="M105.106 254.57L39.9014 192.838L74.4502 109.718L139.168 170.809L105.106 254.57Z" stroke="#242424" stroke-width="5" stroke-linecap="round" stroke-linejoin="round"/>
<path d="M200.48 260.87L234.212 175.67L145.65 173.064L111.276 257.973L200.48 260.87Z" stroke="#242424" stroke-width="5" stroke-linejoin="round"/>
<path d="M122.001 73.7483L145.027 74.3121C149.255 78.5218 152.608 83.5252 154.893 89.0344C157.178 94.5435 158.35 100.45 158.341 106.413C158.341 107.268 158.341 108.124 158.341 108.979C149.466 107.376 141.27 103.168 134.798 96.8939C128.326 90.6193 123.871 82.5617 122.001 73.7483V73.7483Z" stroke="#242424" stroke-width="5" stroke-linejoin="round"/>
<path d="M173.951 111.274C182.263 102.948 193.499 98.191 205.269 98.0134L222.28 114.171C214.75 118.922 205.989 121.357 197.085 121.174C188.18 120.99 179.527 118.197 172.199 113.14C172.77 112.505 173.354 111.883 173.951 111.274Z" stroke="#242424" stroke-width="5" stroke-linejoin="round"/>
<path d="M257.394 147.555L248.226 168.184L144.482 165.676H144.034L143.587 165.267L68.4553 93.6774L76.5524 72.6204L105.106 73.3203C108.602 84.7564 115.472 94.8722 124.818 102.345C134.163 109.817 145.548 114.298 157.484 115.201C158.717 115.292 159.963 115.35 161.221 115.376C162.03 113.476 162.719 111.528 163.285 109.543C166.701 98.0931 166.264 85.8396 162.039 74.6619L181.347 75.148L181.464 75.323L193.142 86.464C182.511 91.4537 173.765 99.7209 168.189 110.049C167.208 111.844 166.331 113.694 165.562 115.59C166.477 116.465 167.391 117.301 168.345 118.098C177.349 125.83 188.463 130.693 200.257 132.062C212.051 133.43 223.985 131.242 234.523 125.778L257.394 147.555Z" stroke="#242424" stroke-width="5" stroke-linejoin="round"/>
</g>
<defs>
<clipPath id="clip0">
<rect width="316" height="315" fill="white"/>
</clipPath>
</defs>
</svg>
