<svg width="35" height="35" viewBox="0 0 35 35" fill="none" xmlns="http://www.w3.org/2000/svg">
<path d="M32.3449 15.1402L32.1904 14.4847H17.9416V20.5153H26.4551C25.5712 24.7126 21.4696 26.922 18.1193 26.922C15.6816 26.922 13.112 25.8966 11.4112 24.2484C10.5139 23.365 9.79963 22.3132 9.30931 21.1533C8.81899 19.9935 8.56226 18.7483 8.55381 17.4891C8.55381 14.9488 9.69541 12.4079 11.3565 10.7365C13.0177 9.06514 15.5265 8.12998 18.0209 8.12998C20.8776 8.12998 22.925 9.64688 23.6906 10.3387L27.9761 6.07578C26.7189 4.97109 23.2654 2.1875 17.8828 2.1875C13.73 2.1875 9.74805 3.77822 6.8373 6.67939C3.96484 9.53613 2.47803 13.6671 2.47803 17.5C2.47803 21.3329 3.88486 25.2574 6.66846 28.1367C9.64277 31.2074 13.8551 32.8125 18.1925 32.8125C22.1389 32.8125 25.8795 31.2662 28.5455 28.4607C31.1664 25.699 32.522 21.8777 32.522 17.8719C32.522 16.1854 32.3524 15.184 32.3449 15.1402Z" fill="#242424"/>
</svg>
