<svg width="35" height="35" viewBox="0 0 35 35" fill="none" xmlns="http://www.w3.org/2000/svg">
<path d="M30.3632 2.1875H4.8043C3.40771 2.1875 2.1875 3.19238 2.1875 4.57256V30.1882C2.1875 31.5759 3.40771 32.8125 4.8043 32.8125H30.3557C31.7598 32.8125 32.8125 31.5677 32.8125 30.1882V4.57256C32.8207 3.19238 31.7598 2.1875 30.3632 2.1875ZM11.6806 27.7149H7.29326V14.0738H11.6806V27.7149ZM9.63867 11.9998H9.60723C8.20312 11.9998 7.29395 10.9546 7.29395 9.64619C7.29395 8.31387 8.22705 7.29326 9.6626 7.29326C11.0981 7.29326 11.9766 8.30635 12.008 9.64619C12.0073 10.9546 11.0981 11.9998 9.63867 11.9998ZM27.7149 27.7149H23.3276V20.2563C23.3276 18.4693 22.6892 17.2484 21.1019 17.2484C19.8892 17.2484 19.1714 18.0688 18.8521 18.8679C18.7325 19.155 18.7004 19.546 18.7004 19.9452V27.7149H14.3131V14.0738H18.7004V15.9722C19.3389 15.063 20.3362 13.7546 22.657 13.7546C25.537 13.7546 27.7156 15.6529 27.7156 19.7456L27.7149 27.7149Z" fill="#242424"/>
</svg>
