<svg width="24" height="25" viewBox="0 0 24 25" fill="none" xmlns="http://www.w3.org/2000/svg">
<path d="M18 8.95937C18 7.37089 17.3679 5.84746 16.2426 4.72423C15.1174 3.601 13.5913 2.96997 12 2.96997C10.4087 2.96997 8.88258 3.601 7.75736 4.72423C6.63214 5.84746 6 7.37089 6 8.95937C6 15.947 3 17.9435 3 17.9435H21C21 17.9435 18 15.947 18 8.95937Z" stroke="#1A3D6F" stroke-width="1.5" stroke-linecap="round" stroke-linejoin="round"/>
<path d="M13.73 21.9364C13.5542 22.2389 13.3019 22.4901 12.9982 22.6646C12.6946 22.8392 12.3504 22.9311 12 22.9311C11.6496 22.9311 11.3054 22.8392 11.0018 22.6646C10.6982 22.4901 10.4458 22.2389 10.27 21.9364" stroke="#1A3D6F" stroke-width="1.5" stroke-linecap="round" stroke-linejoin="round"/>
</svg>
