<svg width="24" height="24" viewBox="0 0 24 24" fill="none" xmlns="http://www.w3.org/2000/svg">
<path d="M22.7399 8.145C22.7399 8.13 22.7399 8.11 22.7349 8.095C22.7299 8.075 22.7199 8.05 22.7149 8.03C22.7049 8.005 22.6999 7.975 22.6899 7.95V7.945L20.6899 3.445C20.5649 3.175 20.2949 3 19.9999 3H3.99994C3.70494 3 3.43494 3.175 3.31494 3.445L1.31494 7.945V7.95C1.30494 7.975 1.29994 8 1.28994 8.025C1.28494 8.045 1.27494 8.07 1.26994 8.09C1.26494 8.105 1.26494 8.12 1.26494 8.135C1.25994 8.17 1.25494 8.205 1.25494 8.235V8.24V20.24C1.24994 20.665 1.58494 21 1.99994 21H21.9999C22.4149 21 22.7499 20.665 22.7499 20.25V8.25V8.245C22.7499 8.21 22.7449 8.175 22.7399 8.145ZM4.48494 4.5H19.5099L20.8449 7.5H3.15494L4.48494 4.5ZM13.7499 9V13.14L12.2799 12.55C12.0999 12.48 11.8999 12.48 11.7249 12.55L10.2549 13.14V9H13.7499ZM21.2499 19.5H2.74994V9H8.74994V14.25C8.74994 14.5 8.87494 14.73 9.07994 14.87C9.28494 15.01 9.54994 15.04 9.77994 14.945L11.9999 14.06L14.2199 14.95C14.3099 14.98 14.4049 15 14.4999 15C14.6499 15 14.7949 14.955 14.9199 14.87C15.1249 14.73 15.2499 14.5 15.2499 14.25V9H21.2499V19.5Z" fill="#1A3D6F"/>
</svg>
