<svg width="168" height="170" viewBox="0 0 168 170" fill="none" xmlns="http://www.w3.org/2000/svg">
<g opacity="0.68">
<path d="M22.1576 14.3162C22.1576 14.3162 -15.464 55.2845 31.4575 91.0403C31.4575 91.0403 48.6281 101.51 66.8164 95.6539C85.0048 89.7981 103.626 73.9831 102.803 47.6432C101.981 21.3032 85.0264 5.33289 62.8432 0.774696C62.8432 0.774696 41.8616 -4.87037 22.1576 14.3162Z" fill="#B7B7B7"/>
<path d="M52.4175 90.0533C74.75 90.0533 92.854 71.5076 92.854 48.6303C92.854 25.753 74.75 7.20728 52.4175 7.20728C30.085 7.20728 11.981 25.753 11.981 48.6303C11.981 71.5076 30.085 90.0533 52.4175 90.0533Z" fill="#DDE7F4"/>
<path d="M98.0937 90.3747C98.0937 90.3747 88.6098 96.8515 105.672 110.57C122.735 124.289 151.63 161.587 159.122 162.629C166.614 163.672 168 154.688 168 154.688L167.09 150.507L107.697 89.5096C107.697 89.5096 103.247 85.5503 98.0937 90.3747Z" fill="#B7B7B7"/>
<path d="M86.8667 84.8293L95.766 93.7017C95.766 93.7017 98.0395 88.5224 100.833 88.4115L91.9118 79.2729L86.8667 84.8293Z" fill="#B7B7B7"/>
</g>
<g opacity="0.68">
<path d="M16.2791 17.8869C16.2791 17.8869 -21.3533 58.8442 25.5682 94.611C25.5682 94.611 42.7388 105.08 60.938 99.2247C79.1371 93.3689 97.7477 77.5538 96.914 51.2139C96.0804 24.874 79.1804 8.89255 56.9538 4.34544C56.9538 4.34544 35.9723 -1.31071 16.2791 17.8869Z" fill="#63BBE3"/>
<path d="M49.397 93.6241C71.7295 93.6241 89.8335 75.0784 89.8335 52.2011C89.8335 29.3238 71.7295 10.7781 49.397 10.7781C27.0645 10.7781 8.96045 29.3238 8.96045 52.2011C8.96045 75.0784 27.0645 93.6241 49.397 93.6241Z" fill="#F7FAFF"/>
<path d="M92.2152 93.9233C92.2152 93.9233 82.7204 100.4 99.7936 114.119C116.867 127.838 145.752 165.135 153.254 166.178C160.757 167.22 162.121 158.237 162.121 158.237L161.223 154.056L101.818 93.0582C101.818 93.0582 97.3577 89.1211 92.2152 93.9233Z" fill="#E43A3A"/>
<path d="M80.9775 88.4449L89.8768 97.3173C89.8768 97.3173 92.1612 92.1381 94.9436 92.0382L86.0335 82.8997L80.9775 88.4449Z" fill="#B81919"/>
</g>
<g opacity="0.68">
<path d="M89.8773 52.1901C89.8921 62.1453 86.3887 71.7695 80.0145 79.2842C78.7895 80.746 77.4615 82.1138 76.0412 83.3766C69.0847 89.5992 60.2581 93.1942 51.0299 93.5636C41.8016 93.9329 32.7281 91.0543 25.3189 85.4067C17.9097 79.759 12.6116 71.6829 10.306 62.5219C8.00035 53.3608 8.82625 43.6673 12.6463 35.0539C16.4663 26.4406 23.0501 19.4267 31.3023 15.1794C39.5546 10.932 48.9777 9.70717 58.004 11.7086C67.0303 13.7101 75.1154 18.8172 80.9144 26.1803C86.7133 33.5433 89.8764 42.7184 89.8773 52.179V52.1901Z" stroke="black" stroke-width="3" stroke-miterlimit="10"/>
<path d="M49.6354 3.75782C40.2885 3.7644 31.1534 6.60956 23.3847 11.9336C15.616 17.2577 9.56264 24.8217 5.9897 33.6695C2.41677 42.5172 1.4847 52.2514 3.31133 61.6417C5.13797 71.032 9.64129 79.6567 16.252 86.4257C22.8628 93.1946 31.2842 97.8038 40.4517 99.6707C49.6192 101.538 59.1212 100.578 67.7565 96.9142C76.3919 93.2501 83.773 87.0455 88.9668 79.0849C94.1605 71.1243 96.9337 61.7649 96.9359 52.19C96.9359 45.828 95.7122 39.5282 93.3349 33.6507C90.9576 27.7732 87.4731 22.4331 83.0806 17.9354C78.688 13.4378 73.4735 9.87077 67.7349 7.43813C61.9962 5.00549 55.846 3.7549 49.6354 3.75782V3.75782ZM80.0142 79.2841C78.7893 80.746 77.4613 82.1138 76.0409 83.3765C68.1425 90.4511 57.8712 94.1077 47.3921 93.5757C36.9131 93.0437 27.0451 88.3645 19.8682 80.5246C12.6914 72.6847 8.76631 62.2965 8.92048 51.5498C9.07466 40.8031 13.296 30.5376 20.6947 22.9171C28.0934 15.2966 38.0914 10.9165 48.5811 10.7002C59.0709 10.4838 69.2329 14.4481 76.925 21.7574C84.6171 29.0666 89.2384 39.1498 89.8147 49.8814C90.391 60.613 86.8773 71.1546 80.0142 79.2841V79.2841Z" stroke="black" stroke-width="3" stroke-miterlimit="10"/>
<path d="M89.8773 52.1901C89.8921 62.1453 86.3887 71.7695 80.0145 79.2842C78.7895 80.746 77.4615 82.1138 76.0412 83.3766C69.0847 89.5992 60.2581 93.1942 51.0299 93.5636C41.8016 93.9329 32.7281 91.0543 25.3189 85.4067C17.9097 79.759 12.6116 71.6829 10.306 62.5219C8.00035 53.3608 8.82625 43.6673 12.6463 35.0539C16.4663 26.4406 23.0501 19.4267 31.3023 15.1794C39.5546 10.932 48.9777 9.70717 58.004 11.7086C67.0303 13.7101 75.1154 18.8172 80.9144 26.1803C86.7133 33.5433 89.8764 42.7184 89.8773 52.179V52.1901Z" stroke="black" stroke-width="3" stroke-miterlimit="10"/>
<path d="M76.0303 83.3765L80.0144 79.2952C78.7895 80.757 77.4615 82.1248 76.0411 83.3876L76.0303 83.3765Z" stroke="black" stroke-width="3" stroke-miterlimit="10"/>
<path d="M94.543 91.4834L91.9014 94.1895L89.2597 96.8845L80.9775 88.4002C82.8422 86.6941 84.5725 84.8399 86.1525 82.855L94.543 91.4834Z" stroke="black" stroke-width="3" stroke-miterlimit="10"/>
<path d="M103.378 94.2395C100.207 90.9911 95.0658 90.9911 91.8949 94.2395C88.7239 97.4878 88.7239 102.754 91.8949 106.003L148.3 163.784C151.471 167.032 156.612 167.032 159.783 163.784C162.954 160.535 162.954 155.269 159.783 152.021L103.378 94.2395Z" stroke="black" stroke-width="3" stroke-miterlimit="10"/>
</g>
</svg>
