<svg width="24" height="24" viewBox="0 0 24 24" fill="none" xmlns="http://www.w3.org/2000/svg">
<path d="M5.81005 5.43478C8.91708 2.43973 13.541 2.55911 16.4167 5.43478C19.1665 8.18466 19.3346 12.5386 16.921 15.4846L21.1896 19.7537L20.129 20.8144L15.8599 16.5457C12.9139 18.9594 8.55992 18.7913 5.81005 16.0414C2.93437 13.1657 2.79916 8.33717 5.81005 5.43478ZM15.356 6.49544C13.0128 4.1523 9.21386 4.1523 6.87071 6.49544C4.52757 8.83859 4.52757 12.6376 6.87071 14.9807C9.21386 17.3239 13.0128 17.3239 15.356 14.9807C17.6991 12.6376 17.6991 8.83859 15.356 6.49544Z" fill="#1A3D6F"/>
</svg>
