<svg width="116" height="84" viewBox="0 0 116 84" fill="none" xmlns="http://www.w3.org/2000/svg">
<path d="M81.7323 45.3697L31.8085 1.29084C30.4127 0.448524 28.8148 0.002331 27.1855 0C26.4498 0.00172172 25.7177 0.102694 25.0088 0.300196C21.2546 1.30085 21.5241 5.51361 21.5241 5.51361V30.0697L60.305 64.282C60.305 64.282 62.911 66.1633 62.911 68.845C62.911 71.0365 60.8242 72.9477 60.5346 73.2079L81.922 54.3355C81.922 54.3355 84.3383 52.3342 84.3383 49.9427C84.3383 47.2509 81.7323 45.3697 81.7323 45.3697Z" fill="url(#paint0_linear)"/>
<path d="M114.942 48.0314L94.5827 30.0196C94.0202 29.6755 93.3746 29.4921 92.7156 29.4892C92.4152 29.4868 92.1159 29.5272 91.8269 29.6093C91.3882 29.7568 91.0109 30.0462 90.7543 30.432C90.4976 30.8178 90.3762 31.2782 90.4091 31.7407V67.9744C90.3947 68.4289 90.5352 68.8747 90.8075 69.2385C91.0797 69.6023 91.4674 69.8623 91.9068 69.9757C92.3594 70.1461 92.8465 70.2042 93.3264 70.1449C93.8063 70.0857 94.2647 69.9109 94.6626 69.6355L115.032 51.6738C115.576 51.2228 115.932 50.5837 116.03 49.8826C115.989 49.5145 115.871 49.1592 115.684 48.8401C115.496 48.521 115.243 48.2454 114.942 48.0314V48.0314Z" fill="url(#paint1_linear)"/>
<path d="M40.4552 46.7606L7.04623 17.2813C6.12059 16.7227 5.06141 16.4253 3.98089 16.4208C3.48822 16.4218 2.99792 16.4891 2.52313 16.6209C0.0169513 17.3214 0.196675 20.1032 0.196675 20.1032V79.522C0.188799 80.2602 0.425735 80.9801 0.8703 81.5687C1.31486 82.1573 1.94188 82.5813 2.65292 82.7742C3.39346 83.0553 4.19104 83.1521 4.97715 83.0563C5.76325 82.9604 6.51438 82.6747 7.16604 82.2238L40.585 52.7445C41.471 52.0043 42.0481 50.9582 42.2026 49.8126C42.1424 49.2092 41.9556 48.6254 41.6544 48.0994C41.3533 47.5735 40.9446 47.1172 40.4552 46.7606V46.7606Z" fill="url(#paint2_linear)"/>
<path d="M42.1827 49.8026C42.1224 49.1992 41.9356 48.6154 41.6345 48.0894C41.3334 47.5634 40.9247 47.1072 40.4353 46.7506L21.5242 30.0197V69.5355L40.5651 52.7345C41.4511 51.9943 42.0282 50.9482 42.1827 49.8026Z" fill="url(#paint3_linear)"/>
<defs>
<linearGradient id="paint0_linear" x1="22.5037" y1="17.3459" x2="71.6676" y2="65.5582" gradientUnits="userSpaceOnUse">
<stop stop-color="#7AC2EB"/>
<stop offset="0.25" stop-color="#008DCF"/>
<stop offset="0.53" stop-color="#00619C"/>
<stop offset="0.7" stop-color="#11437B"/>
<stop offset="0.83" stop-color="#193973"/>
<stop offset="1" stop-color="#007DC0"/>
</linearGradient>
<linearGradient id="paint1_linear" x1="90.9969" y1="53.2661" x2="116.788" y2="53.2661" gradientUnits="userSpaceOnUse">
<stop stop-color="#EE3B24"/>
<stop offset="0.09" stop-color="#E45C20"/>
<stop offset="0.42" stop-color="#BB161A"/>
<stop offset="1" stop-color="#770000"/>
</linearGradient>
<linearGradient id="paint2_linear" x1="0.597763" y1="52.045" x2="42.4673" y2="52.045" gradientUnits="userSpaceOnUse">
<stop stop-color="#FCBC64"/>
<stop offset="0.07" stop-color="#FDCE99"/>
<stop offset="0.19" stop-color="#FAA819"/>
<stop offset="1" stop-color="#CE4E1D"/>
</linearGradient>
<linearGradient id="paint3_linear" x1="21.1139" y1="49.2619" x2="41.2667" y2="38.1434" gradientUnits="userSpaceOnUse">
<stop stop-color="#E6801D"/>
<stop offset="0.18" stop-color="#E27B1D"/>
<stop offset="0.74" stop-color="#9D360D"/>
<stop offset="1" stop-color="#872C01"/>
</linearGradient>
</defs>
</svg>
