<svg width="218" height="218" viewBox="0 0 218 218" fill="none" xmlns="http://www.w3.org/2000/svg">
<path d="M217.88 68.4786C214.254 142.553 195.79 216.974 115.343 217.29C34.1763 217.606 -9.66165 140.934 1.8031 41.1151C8.51997 -17.204 58.6959 4.47875 115.306 4.47875C171.917 4.47875 220.748 9.77417 217.88 68.4786Z" fill="#DDE7F4"/>
<path d="M122.833 200.186L123.264 200.302L122.833 200.194V200.186Z" fill="#FFAA00"/>
<path d="M175.29 124.755L175.208 125.071C175.208 125.164 175.164 125.241 175.141 125.31V125.395C175.145 125.413 175.145 125.431 175.141 125.449C175.141 125.449 175.141 125.449 175.141 125.503C175.141 125.557 175.141 125.503 175.141 125.541C168.32 150.77 156.893 167.088 145.421 177.609C144.529 178.436 143.637 179.225 142.746 179.975C134.686 186.858 125.367 191.978 115.351 195.029C113.319 195.656 111.245 196.128 109.147 196.44C101.876 194.5 94.8513 191.68 88.2159 188.038C26.1814 153.66 40.113 61.0096 40.113 61.0096C40.373 58.412 47.2385 53.949 56.5485 49.0313C57.938 48.2605 59.3943 47.5513 60.8803 46.7959C81.2167 36.5365 109.176 25.2982 109.176 25.2982L150.369 43.5509L153.847 45.0925L160.534 48.0601L178.18 59.6221C180.996 99.3108 176.36 120.508 175.29 124.755Z" fill="#63BBE3"/>
<path d="M62.671 138.229C68.0876 152.982 76.8701 173.462 88.1788 188.054C26.1443 153.676 40.0759 61.0252 40.0759 61.0252C40.3359 58.4276 47.2014 53.9647 56.5114 49.0469V103.342C56.4999 115.263 58.5873 127.086 62.671 138.229Z" fill="#97D2ED"/>
<path d="M110.818 205.389C107.935 204.629 105.179 203.421 102.645 201.805L110.818 205.389Z" fill="#FFD472"/>
<path d="M175.29 124.755L175.208 125.071C175.208 125.164 175.164 125.241 175.142 125.31V125.395C175.145 125.413 175.145 125.431 175.142 125.449C175.142 125.449 175.142 125.449 175.142 125.503C175.142 125.557 175.142 125.503 175.142 125.541C168.321 150.77 156.893 167.088 145.421 177.609C177.965 132.903 155.578 51.1973 153.832 45.1003L160.519 48.0679L178.166 59.6299C180.997 99.3109 176.36 120.508 175.29 124.755Z" fill="#2FA4DB"/>
<path d="M153.683 88.1883L150.785 95.0715L113.263 134.575L103.931 142.237L103.604 142.507L96.6342 140.934L68.771 112.607L67.9463 106.634L72.9542 99.311L80.7559 99.5037L101.375 120.701L112.706 108.946L137.411 83.1241L145.071 79.2546L150.228 80.619L153.683 88.1883Z" fill="#B81919"/>
<path d="M109.102 25.3136C109.102 25.3136 43.0406 51.9063 40.0685 59.6144V103.55C40.0298 116.529 42.6564 129.368 47.7736 141.212C56.7344 161.754 74.8789 189.418 109.102 196.448C131.92 191.761 147.59 177.902 158.141 163.103C171.233 144.569 178.242 122.164 178.136 99.1875V59.6144C175.164 51.9063 109.102 25.3136 109.102 25.3136Z" stroke="#231F20" stroke-width="5" stroke-linecap="round" stroke-linejoin="round"/>
<path d="M151.164 81.8752C150.365 81.0449 149.416 80.3861 148.371 79.9366C147.326 79.4871 146.206 79.2557 145.075 79.2557C143.944 79.2557 142.824 79.4871 141.779 79.9366C140.734 80.3861 139.785 81.0449 138.986 81.8752L101.323 120.94L82.6507 101.577C81.8595 100.711 80.9091 100.018 79.8557 99.5397C78.8023 99.061 77.6671 98.8061 76.5172 98.79C75.3672 98.7738 74.2258 98.9968 73.1602 99.4457C72.0947 99.8946 71.1267 100.56 70.3132 101.404C69.4997 102.247 68.8573 103.251 68.424 104.356C67.9906 105.461 67.7749 106.645 67.7898 107.838C67.8046 109.031 68.0497 110.209 68.5105 111.302C68.9712 112.395 69.6384 113.381 70.4726 114.203L94.7618 139.4L95.007 139.632C95.0813 139.716 95.1556 139.809 95.2373 139.894C96.8533 141.567 99.0432 142.507 101.326 142.507C103.61 142.507 105.799 141.567 107.415 139.894L151.164 94.5087C152.777 92.8324 153.683 90.5606 153.683 88.192C153.683 85.8234 152.777 83.5516 151.164 81.8752V81.8752Z" stroke="#231F20" stroke-width="5" stroke-miterlimit="10"/>
</svg>
