<svg width="35" height="35" viewBox="0 0 35 35" fill="none" xmlns="http://www.w3.org/2000/svg">
<g clip-path="url(#clip0)">
<path d="M34.7702 10.1712C34.7702 7.09502 32.5075 4.62041 29.7116 4.62041C25.9245 4.44336 22.0622 4.375 18.1152 4.375H16.8847C12.9472 4.375 9.07805 4.44336 5.29094 4.62109C2.50188 4.62109 0.239185 7.10938 0.239185 10.1855C0.0682868 12.6185 -0.00417414 15.0521 -7.25824e-05 17.4856C-0.00690852 19.9192 0.0705655 22.3551 0.232349 24.7933C0.232349 27.8694 2.49504 30.3646 5.28411 30.3646C9.26262 30.5491 13.3437 30.6312 17.4931 30.6243C21.6493 30.638 25.719 30.5514 29.7021 30.3646C32.498 30.3646 34.7607 27.8694 34.7607 24.7933C34.9247 22.3528 34.9999 19.9192 34.9931 17.4788C35.0086 15.0452 34.9343 12.6093 34.7702 10.1712ZM14.1503 24.1917V10.7591L24.0624 17.472L14.1503 24.1917Z" fill="#242424"/>
</g>
<defs>
<clipPath id="clip0">
<rect width="35" height="35" fill="white"/>
</clipPath>
</defs>
</svg>
