<svg width="24" height="24" viewBox="0 0 24 24" fill="none" xmlns="http://www.w3.org/2000/svg">
<path d="M11.7192 1.50556C10.188 1.59292 8.74669 2.25715 7.68553 3.3645C6.62438 4.47186 6.02214 5.94012 6.00007 7.47368C5.99467 8.57481 6.29312 9.65609 6.86257 10.5986C7.50397 11.6188 8.04727 12.6975 8.48519 13.8202L9.39832 16.2577C9.42545 16.3289 9.47366 16.3902 9.5365 16.4333C9.59934 16.4765 9.67384 16.4994 9.75007 16.4992H14.2501C14.3264 16.4993 14.4009 16.476 14.4637 16.4326C14.5265 16.3892 14.5746 16.3276 14.6014 16.2562L15.5074 13.8397C15.883 12.7812 16.381 11.7702 16.9913 10.8273C17.6069 9.90393 17.9544 8.8279 17.995 7.71887C18.0357 6.60984 17.768 5.51126 17.2216 4.54528C16.6753 3.57929 15.8718 2.78376 14.9004 2.24713C13.929 1.71049 12.8278 1.45379 11.7192 1.50556ZM10.8751 8.99918H10.5001C10.4259 8.99918 10.3534 8.97719 10.2917 8.93598C10.2301 8.89478 10.182 8.83621 10.1536 8.76769C10.1252 8.69916 10.1178 8.62376 10.1323 8.55102C10.1467 8.47828 10.1825 8.41146 10.2349 8.35902C10.2873 8.30657 10.3542 8.27086 10.4269 8.25639C10.4997 8.24192 10.5751 8.24934 10.6436 8.27773C10.7121 8.30611 10.7707 8.35417 10.8119 8.41584C10.8531 8.47751 10.8751 8.55001 10.8751 8.62418V8.99918ZM11.6251 15.7492V9.74918H12.3751V15.7492H11.6251ZM16.3677 10.4107C15.7254 11.4015 15.2009 12.4638 14.8047 13.5761L13.9902 15.7492H13.1251V9.74918H13.5001C13.7226 9.74918 13.9401 9.6832 14.1251 9.55958C14.3101 9.43597 14.4543 9.26027 14.5394 9.0547C14.6246 8.84913 14.6469 8.62293 14.6034 8.4047C14.56 8.18648 14.4529 7.98602 14.2956 7.82869C14.1382 7.67135 13.9378 7.56421 13.7195 7.5208C13.5013 7.47739 13.2751 7.49967 13.0695 7.58482C12.864 7.66996 12.6883 7.81416 12.5647 7.99916C12.441 8.18417 12.3751 8.40168 12.3751 8.62418V8.99918H11.6251V8.62418C11.6251 8.40168 11.5591 8.18417 11.4355 7.99916C11.3119 7.81416 11.1362 7.66996 10.9306 7.58482C10.725 7.49967 10.4988 7.47739 10.2806 7.5208C10.0624 7.56421 9.86191 7.67135 9.70457 7.82869C9.54724 7.98602 9.44009 8.18648 9.39668 8.4047C9.35328 8.62293 9.37556 8.84913 9.4607 9.0547C9.54585 9.26027 9.69005 9.43597 9.87505 9.55958C10.0601 9.6832 10.2776 9.74918 10.5001 9.74918H10.8751V15.7492H10.0099L9.18757 13.5566C8.73336 12.3904 8.16972 11.2699 7.5042 10.2101C7.00625 9.38548 6.74532 8.43956 6.75007 7.47631C6.76959 6.13467 7.29655 4.85021 8.22491 3.88143C9.15326 2.91265 10.4141 2.33146 11.7537 2.25481C12.7235 2.20972 13.6869 2.43445 14.5367 2.90402C15.3864 3.37359 16.0894 4.06961 16.5673 4.91471C17.0453 5.75982 17.2795 6.7209 17.244 7.69114C17.2085 8.66138 16.9046 9.60277 16.3662 10.4107H16.3677ZM13.1251 8.99918V8.62418C13.1251 8.55001 13.1471 8.47751 13.1883 8.41584C13.2295 8.35417 13.288 8.30611 13.3566 8.27773C13.4251 8.24934 13.5005 8.24192 13.5732 8.25639C13.646 8.27086 13.7128 8.30657 13.7652 8.35902C13.8177 8.41146 13.8534 8.47828 13.8679 8.55102C13.8823 8.62376 13.8749 8.69916 13.8465 8.76769C13.8181 8.83621 13.7701 8.89478 13.7084 8.93598C13.6467 8.97719 13.5742 8.99918 13.5001 8.99918H13.1251Z" fill="#1A3D6F"/>
<path d="M11.7894 3.00417C11.2971 3.02678 10.8122 3.13239 10.355 3.31654L10.6348 4.01216C11.0138 3.85959 11.4158 3.77211 11.8239 3.75341C12.5465 3.72134 13.2631 3.8985 13.8875 4.26361C14.5119 4.62873 15.0176 5.1663 15.3441 5.81179L16.0134 5.47429C15.6208 4.70049 15.0137 4.05609 14.2647 3.61807C13.5156 3.18004 12.6563 2.96692 11.7894 3.00417Z" fill="#1A3D6F"/>
<path d="M15.7347 7.17591L16.4817 7.10841C16.4561 6.82451 16.4039 6.54365 16.3257 6.26953L15.6042 6.47541C15.6694 6.70433 15.7131 6.93885 15.7347 7.17591Z" fill="#1A3D6F"/>
<path d="M14.2499 17.25H9.74994C9.65048 17.25 9.5551 17.2895 9.48477 17.3598C9.41445 17.4302 9.37494 17.5255 9.37494 17.625C9.37494 17.7245 9.41445 17.8198 9.48477 17.8902C9.5551 17.9605 9.65048 18 9.74994 18H14.2499C14.3494 18 14.4448 17.9605 14.5151 17.8902C14.5854 17.8198 14.6249 17.7245 14.6249 17.625C14.6249 17.5255 14.5854 17.4302 14.5151 17.3598C14.4448 17.2895 14.3494 17.25 14.2499 17.25Z" fill="#1A3D6F"/>
<path d="M14.2499 18.75H9.74994C9.65048 18.75 9.5551 18.7895 9.48477 18.8598C9.41445 18.9302 9.37494 19.0255 9.37494 19.125C9.37494 19.2245 9.41445 19.3198 9.48477 19.3902C9.5551 19.4605 9.65048 19.5 9.74994 19.5H14.2499C14.3494 19.5 14.4448 19.4605 14.5151 19.3902C14.5854 19.3198 14.6249 19.2245 14.6249 19.125C14.6249 19.0255 14.5854 18.9302 14.5151 18.8598C14.4448 18.7895 14.3494 18.75 14.2499 18.75Z" fill="#1A3D6F"/>
<path d="M14.2499 20.25H9.74994C9.65048 20.25 9.5551 20.2895 9.48477 20.3598C9.41445 20.4302 9.37494 20.5255 9.37494 20.625C9.37494 20.7245 9.41445 20.8198 9.48477 20.8902C9.5551 20.9605 9.65048 21 9.74994 21H10.1624C10.2485 21.4239 10.4785 21.8049 10.8133 22.0786C11.1482 22.3524 11.5674 22.5019 11.9999 22.5019C12.4324 22.5019 12.8517 22.3524 13.1865 22.0786C13.5214 21.8049 13.7514 21.4239 13.8374 21H14.2499C14.3494 21 14.4448 20.9605 14.5151 20.8902C14.5854 20.8198 14.6249 20.7245 14.6249 20.625C14.6249 20.5255 14.5854 20.4302 14.5151 20.3598C14.4448 20.2895 14.3494 20.25 14.2499 20.25ZM11.9999 21.75C11.7681 21.749 11.5422 21.6765 11.3532 21.5422C11.1642 21.408 11.0212 21.2186 10.9439 21H13.0559C12.9787 21.2186 12.8357 21.408 12.6467 21.5422C12.4577 21.6765 12.2318 21.749 11.9999 21.75Z" fill="#1A3D6F"/>
<path d="M22.125 6.375H19.875C19.7755 6.375 19.6802 6.41451 19.6098 6.48483C19.5395 6.55516 19.5 6.65054 19.5 6.75C19.5 6.84946 19.5395 6.94484 19.6098 7.01517C19.6802 7.08549 19.7755 7.125 19.875 7.125H22.125C22.2245 7.125 22.3198 7.08549 22.3902 7.01517C22.4605 6.94484 22.5 6.84946 22.5 6.75C22.5 6.65054 22.4605 6.55516 22.3902 6.48483C22.3198 6.41451 22.2245 6.375 22.125 6.375Z" fill="#1A3D6F"/>
<path d="M22.2927 9.78855L20.0427 8.66355C19.9536 8.6191 19.8506 8.61182 19.7562 8.64333C19.6619 8.67483 19.5839 8.74254 19.5394 8.83155C19.495 8.92057 19.4877 9.0236 19.5192 9.11797C19.5507 9.21235 19.6184 9.29035 19.7074 9.3348L21.9574 10.4598C22.0015 10.4818 22.0495 10.4949 22.0986 10.4984C22.1478 10.5019 22.1971 10.4956 22.2438 10.48C22.2906 10.4644 22.3338 10.4398 22.371 10.4075C22.4082 10.3752 22.4386 10.3359 22.4607 10.2918C22.4827 10.2477 22.4958 10.1997 22.4993 10.1506C22.5027 10.1015 22.4965 10.0521 22.4809 10.0054C22.4653 9.95865 22.4406 9.91545 22.4083 9.87825C22.376 9.84104 22.3367 9.81056 22.2927 9.78855Z" fill="#1A3D6F"/>
<path d="M19.5395 4.6668C19.5615 4.71089 19.592 4.75021 19.6292 4.78252C19.6664 4.81483 19.7096 4.83949 19.7563 4.85509C19.8031 4.87069 19.8524 4.87693 19.9016 4.87345C19.9507 4.86997 19.9987 4.85684 20.0428 4.8348L22.2928 3.7098C22.3369 3.68779 22.3762 3.65731 22.4085 3.62011C22.4408 3.5829 22.4654 3.5397 22.481 3.49297C22.4966 3.44624 22.5029 3.3969 22.4994 3.34775C22.4959 3.29861 22.4828 3.25063 22.4608 3.20655C22.4388 3.16248 22.4083 3.12317 22.3711 3.09088C22.3339 3.05858 22.2907 3.03393 22.244 3.01833C22.1972 3.00273 22.1479 2.99648 22.0987 2.99996C22.0496 3.00343 22.0016 3.01654 21.9575 3.03855L19.7075 4.16355C19.6634 4.18555 19.6241 4.21602 19.5918 4.25322C19.5595 4.29042 19.5348 4.33363 19.5192 4.38036C19.5036 4.4271 19.4974 4.47645 19.5009 4.5256C19.5044 4.57475 19.5175 4.62273 19.5395 4.6668Z" fill="#1A3D6F"/>
<path d="M4.125 6.375H1.875C1.77554 6.375 1.68016 6.41451 1.60984 6.48483C1.53951 6.55516 1.5 6.65054 1.5 6.75C1.5 6.84946 1.53951 6.94484 1.60984 7.01517C1.68016 7.08549 1.77554 7.125 1.875 7.125H4.125C4.22446 7.125 4.31984 7.08549 4.39016 7.01517C4.46049 6.94484 4.5 6.84946 4.5 6.75C4.5 6.65054 4.46049 6.55516 4.39016 6.48483C4.31984 6.41451 4.22446 6.375 4.125 6.375Z" fill="#1A3D6F"/>
<path d="M3.95741 8.66355L1.70741 9.78855C1.6184 9.83301 1.55069 9.91101 1.51918 10.0054C1.48768 10.0998 1.49495 10.2028 1.53941 10.2918C1.58387 10.3808 1.66186 10.4485 1.75624 10.48C1.85062 10.5115 1.95365 10.5043 2.04266 10.4598L4.29266 9.3348C4.38167 9.29035 4.44938 9.21235 4.48089 9.11797C4.51239 9.0236 4.50512 8.92057 4.46066 8.83155C4.4162 8.74254 4.33821 8.67483 4.24383 8.64333C4.14945 8.61182 4.04642 8.6191 3.95741 8.66355Z" fill="#1A3D6F"/>
<path d="M3.95741 4.83676C4.04642 4.88122 4.14945 4.88849 4.24383 4.85699C4.33821 4.82548 4.4162 4.75777 4.46066 4.66876C4.50512 4.57975 4.51239 4.47672 4.48089 4.38234C4.44938 4.28796 4.38167 4.20997 4.29266 4.16551L2.04266 3.04051C1.95365 2.99605 1.85062 2.98878 1.75624 3.02028C1.66186 3.05179 1.58387 3.1195 1.53941 3.20851C1.49495 3.29752 1.48768 3.40055 1.51918 3.49493C1.55069 3.58931 1.6184 3.6673 1.70741 3.71176L3.95741 4.83676Z" fill="#1A3D6F"/>
</svg>
