<svg width="24" height="24" viewBox="0 0 24 24" fill="none" xmlns="http://www.w3.org/2000/svg">
<path d="M22.2751 7.87559C20.7751 3.82559 18.0751 0.975586 15.6751 0.975586C15.3001 0.975586 15.0001 1.05059 14.7001 1.12559C14.0251 1.35059 13.4251 1.87559 13.0501 2.55059C8.55007 7.65059 2.32507 9.97559 2.25007 9.97559C0.750065 10.5006 0.300065 12.9006 1.27507 15.5256C2.10007 17.7756 3.60006 19.2006 4.95006 19.2006C5.10006 19.2006 5.32506 19.2006 5.47506 19.1256C5.62506 19.0506 6.45007 18.9006 7.95006 18.6756L9.45006 21.8256C9.52506 21.9756 9.67506 22.1256 9.90006 22.2006L12.3001 23.0256C12.3751 23.0256 12.4501 23.1006 12.5251 23.1006C12.6751 23.1006 12.8251 23.0256 12.9751 22.9506C13.2001 22.8006 13.2751 22.5006 13.2751 22.2756L12.7501 18.0006C14.6251 17.8506 16.7251 17.7756 18.8251 17.9256H18.9751C19.2751 18.0006 19.5751 18.0756 19.8751 18.0756C20.2501 18.0756 20.5501 18.0006 20.8501 17.9256C22.1251 17.4756 23.0251 16.0506 23.2501 14.0256C23.4001 12.2256 23.1001 9.97559 22.2751 7.87559ZM10.6501 20.8506L9.52506 18.3756L11.2501 18.1506L11.6251 21.1506L10.6501 20.8506ZM16.0501 13.6506C15.5251 12.8256 15.0001 11.8506 14.5501 10.6506C14.1751 9.52559 13.8751 8.47559 13.8001 7.42559C14.0251 7.42559 14.3251 7.65059 14.6251 7.87559C15.1501 8.40059 15.6751 9.22559 15.9751 10.1256C16.5751 11.8506 16.4251 13.2006 16.0501 13.6506ZM5.10006 17.7006C5.02506 17.7006 5.02506 17.7006 5.02506 17.7006C4.50006 17.8506 3.37507 16.8756 2.62507 15.0006C1.95007 13.1256 2.25007 11.5506 2.70007 11.4006C2.92507 11.3256 7.80006 9.52559 12.2251 5.47559C12.1501 7.20059 12.4501 9.22559 13.1251 11.1756C13.9501 13.3506 15.0751 15.1506 16.3501 16.4256C10.5001 16.3506 5.32506 17.6256 5.10006 17.7006ZM21.6751 13.8756C21.5251 15.3006 21.0001 16.2006 20.2501 16.5006C20.1001 16.5756 19.9501 16.5756 19.8001 16.5756C18.9751 16.5756 18.0001 15.9756 16.9501 14.7756C18.0001 13.8756 18.2251 11.8506 17.4001 9.60059C16.9501 8.47559 16.3501 7.50059 15.6751 6.82559C15.0751 6.22559 14.4001 5.92559 13.7251 5.92559C13.7251 5.62559 13.7251 5.40059 13.8001 5.17559C13.9501 3.75059 14.4751 2.85059 15.2251 2.55059C15.3751 2.47559 15.5251 2.47559 15.6751 2.47559C17.1751 2.47559 19.5001 4.72559 20.8501 8.40059C21.6001 10.2756 21.9001 12.3006 21.6751 13.8756Z" fill="#1A3D6F"/>
</svg>
