<svg width="24" height="24" viewBox="0 0 24 24" fill="none" xmlns="http://www.w3.org/2000/svg">
<g clip-path="url(#clip0)">
<path d="M19.9725 6.3247e-05H7.9725C6.91291 0.00204565 5.89728 0.423846 5.14803 1.17309C4.39878 1.92234 3.97698 2.93797 3.975 3.99756V20.0026C3.99426 20.2011 4.08673 20.3853 4.23439 20.5193C4.38205 20.6533 4.57433 20.7276 4.77375 20.7276C4.97317 20.7276 5.16545 20.6533 5.31311 20.5193C5.46077 20.3853 5.55324 20.2011 5.5725 20.0026V3.99756C5.5725 3.36104 5.82536 2.75059 6.27544 2.30051C6.72553 1.85042 7.33598 1.59756 7.9725 1.59756H19.9725C20.609 1.59756 21.2195 1.85042 21.6696 2.30051C22.1196 2.75059 22.3725 3.36104 22.3725 3.99756V20.0026C22.3725 20.6391 22.1196 21.2495 21.6696 21.6996C21.2195 22.1497 20.609 22.4026 19.9725 22.4026H4.7775C4.14098 22.4026 3.53053 22.1497 3.08044 21.6996C2.63036 21.2495 2.3775 20.6391 2.3775 20.0026V3.99756C2.3775 3.78174 2.29177 3.57476 2.13916 3.42215C1.98655 3.26955 1.77957 3.18381 1.56375 3.18381C1.34793 3.18381 1.14095 3.26955 0.988342 3.42215C0.835734 3.57476 0.75 3.78174 0.75 3.99756V20.0026C0.750979 20.5298 0.856041 21.0516 1.05916 21.5381C1.26227 22.0246 1.55945 22.4663 1.93364 22.8377C2.30782 23.2091 2.75166 23.5029 3.23968 23.7024C3.72769 23.9019 4.2503 24.003 4.7775 24.0001H19.9725C20.4997 24.003 21.0223 23.9019 21.5103 23.7024C21.9983 23.5029 22.4422 23.2091 22.8164 22.8377C23.1905 22.4663 23.4877 22.0246 23.6908 21.5381C23.894 21.0516 23.999 20.5298 24 20.0026V3.99756C23.999 3.47035 23.894 2.94852 23.6908 2.46201C23.4877 1.97549 23.1905 1.53387 22.8164 1.16247C22.4422 0.791071 21.9983 0.497206 21.5103 0.297732C21.0223 0.0982576 20.4997 -0.00289953 19.9725 6.3247e-05Z" fill="#1A3D6F"/>
<path d="M19.9725 6.39716H7.97249C7.86109 6.40796 7.74867 6.39535 7.64243 6.36013C7.5362 6.3249 7.43851 6.26785 7.35564 6.19262C7.27277 6.1174 7.20654 6.02568 7.16123 5.92334C7.11591 5.82101 7.0925 5.71032 7.0925 5.5984C7.0925 5.48648 7.11591 5.3758 7.16123 5.27346C7.20654 5.17113 7.27277 5.0794 7.35564 5.00418C7.43851 4.92896 7.5362 4.8719 7.64243 4.83668C7.74867 4.80145 7.86109 4.78884 7.97249 4.79965H19.9725C20.0839 4.78884 20.1963 4.80145 20.3025 4.83668C20.4088 4.8719 20.5065 4.92896 20.5893 5.00418C20.6722 5.0794 20.7384 5.17113 20.7838 5.27346C20.8291 5.3758 20.8525 5.48648 20.8525 5.5984C20.8525 5.71032 20.8291 5.82101 20.7838 5.92334C20.7384 6.02568 20.6722 6.1174 20.5893 6.19262C20.5065 6.26785 20.4088 6.3249 20.3025 6.36013C20.1963 6.39535 20.0839 6.40796 19.9725 6.39716Z" fill="#1A3D6F"/>
<path d="M19.9726 19.2077H7.97257C7.77408 19.1884 7.58987 19.096 7.45584 18.9483C7.32181 18.8006 7.24756 18.6084 7.24756 18.4089C7.24756 18.2095 7.32181 18.0172 7.45584 17.8696C7.58987 17.7219 7.77408 17.6295 7.97257 17.6102H19.9726C20.084 17.5994 20.1964 17.612 20.3026 17.6472C20.4089 17.6824 20.5065 17.7395 20.5894 17.8147C20.6723 17.8899 20.7385 17.9817 20.7838 18.084C20.8291 18.1863 20.8526 18.297 20.8526 18.4089C20.8526 18.5209 20.8291 18.6315 20.7838 18.7339C20.7385 18.8362 20.6723 18.9279 20.5894 19.0032C20.5065 19.0784 20.4089 19.1354 20.3026 19.1707C20.1964 19.2059 20.084 19.2185 19.9726 19.2077Z" fill="#1A3D6F"/>
<path d="M19.9726 11.2048H15.1801C14.9816 11.1855 14.7974 11.093 14.6633 10.9454C14.5293 10.7977 14.455 10.6054 14.455 10.406C14.455 10.2066 14.5293 10.0143 14.6633 9.86665C14.7974 9.71899 14.9816 9.62652 15.1801 9.60727H19.9726C20.084 9.59646 20.1964 9.60907 20.3026 9.6443C20.4088 9.67952 20.5065 9.73658 20.5894 9.8118C20.6723 9.88702 20.7385 9.97874 20.7838 10.0811C20.8291 10.1834 20.8525 10.2941 20.8525 10.406C20.8525 10.5179 20.8291 10.6286 20.7838 10.731C20.7385 10.8333 20.6723 10.925 20.5894 11.0002C20.5065 11.0755 20.4088 11.1325 20.3026 11.1677C20.1964 11.203 20.084 11.2156 19.9726 11.2048Z" fill="#1A3D6F"/>
<path d="M19.9726 15.2028H15.1801C14.9816 15.1836 14.7974 15.0911 14.6633 14.9434C14.5293 14.7958 14.455 14.6035 14.455 14.4041C14.455 14.2046 14.5293 14.0124 14.6633 13.8647C14.7974 13.717 14.9816 13.6246 15.1801 13.6053H19.9726C20.084 13.5945 20.1964 13.6071 20.3026 13.6423C20.4088 13.6776 20.5065 13.7346 20.5894 13.8098C20.6723 13.8851 20.7385 13.9768 20.7838 14.0791C20.8291 14.1815 20.8525 14.2921 20.8525 14.4041C20.8525 14.516 20.8291 14.6267 20.7838 14.729C20.7385 14.8313 20.6723 14.9231 20.5894 14.9983C20.5065 15.0735 20.4088 15.1306 20.3026 15.1658C20.1964 15.201 20.084 15.2136 19.9726 15.2028Z" fill="#1A3D6F"/>
<path d="M11.9999 16.0047H8.77487C8.35179 16.0027 7.94661 15.8338 7.64744 15.5346C7.34828 15.2354 7.17934 14.8303 7.17737 14.4072V10.4022C7.17934 9.97911 7.34828 9.57393 7.64744 9.27476C7.94661 8.9756 8.35179 8.80666 8.77487 8.80469H11.9999C12.4229 8.80666 12.8281 8.9756 13.1273 9.27476C13.4265 9.57393 13.5954 9.97911 13.5974 10.4022V14.4072C13.5954 14.8303 13.4265 15.2354 13.1273 15.5346C12.8281 15.8338 12.4229 16.0027 11.9999 16.0047ZM8.77487 10.4022V14.4072H11.9999V10.4022H8.77487Z" fill="#1A3D6F"/>
</g>
<defs>
<clipPath id="clip0">
<rect width="24" height="24" fill="white"/>
</clipPath>
</defs>
</svg>
