<svg width="24" height="24" viewBox="0 0 24 24" fill="none" xmlns="http://www.w3.org/2000/svg">
<path d="M22.275 7.87559C20.775 3.82559 18.075 0.975586 15.675 0.975586C15.3 0.975586 15 1.05059 14.7 1.12559C14.025 1.35059 13.425 1.87559 13.05 2.55059C8.55 7.65059 2.325 9.97559 2.25 9.97559C0.750004 10.5006 0.300004 12.9006 1.275 15.5256C2.1 17.7756 3.6 19.2006 4.95 19.2006C5.1 19.2006 5.325 19.2006 5.475 19.1256C5.625 19.0506 6.45 18.9006 7.95 18.6756L9.45 21.8256C9.525 21.9756 9.675 22.1256 9.9 22.2006L12.3 23.0256C12.375 23.0256 12.45 23.1006 12.525 23.1006C12.675 23.1006 12.825 23.0256 12.975 22.9506C13.2 22.8006 13.275 22.5006 13.275 22.2756L12.75 18.0006C14.625 17.8506 16.725 17.7756 18.825 17.9256H18.975C19.275 18.0006 19.575 18.0756 19.875 18.0756C20.25 18.0756 20.55 18.0006 20.85 17.9256C22.125 17.4756 23.025 16.0506 23.25 14.0256C23.4 12.2256 23.1 9.97559 22.275 7.87559V7.87559ZM10.65 20.8506L9.525 18.3756L11.25 18.1506L11.625 21.1506L10.65 20.8506ZM16.05 13.6506C15.525 12.8256 15 11.8506 14.55 10.6506C14.175 9.52559 13.875 8.47559 13.8 7.42559C14.025 7.42559 14.325 7.65059 14.625 7.87559C15.15 8.40059 15.675 9.22559 15.975 10.1256C16.575 11.8506 16.425 13.2006 16.05 13.6506V13.6506ZM5.1 17.7006C5.025 17.7006 5.025 17.7006 5.025 17.7006C4.5 17.8506 3.375 16.8756 2.625 15.0006C1.95 13.1256 2.25 11.5506 2.7 11.4006C2.925 11.3256 7.8 9.52559 12.225 5.47559C12.15 7.20059 12.45 9.22559 13.125 11.1756C13.95 13.3506 15.075 15.1506 16.35 16.4256C10.5 16.3506 5.325 17.6256 5.1 17.7006V17.7006ZM21.675 13.8756C21.525 15.3006 21 16.2006 20.25 16.5006C20.1 16.5756 19.95 16.5756 19.8 16.5756C18.975 16.5756 18 15.9756 16.95 14.7756C18 13.8756 18.225 11.8506 17.4 9.60059C16.95 8.47559 16.35 7.50059 15.675 6.82559C15.075 6.22559 14.4 5.92559 13.725 5.92559C13.725 5.62559 13.725 5.40059 13.8 5.17559C13.95 3.75059 14.475 2.85059 15.225 2.55059C15.375 2.47559 15.525 2.47559 15.675 2.47559C17.175 2.47559 19.5 4.72559 20.85 8.40059C21.6 10.2756 21.9 12.3006 21.675 13.8756Z" fill="white"/>
</svg>
