<svg width="24" height="24" viewBox="0 0 24 24" fill="none" xmlns="http://www.w3.org/2000/svg">
<g clip-path="url(#clip0)">
<path d="M10.0249 15.1782C9.84586 15.1782 9.70059 15.033 9.70059 14.8539V11.8358C9.70059 11.6567 9.84586 11.5115 10.0249 11.5115C10.204 11.5115 10.3492 11.6567 10.3492 11.8358V14.8539C10.3492 15.033 10.204 15.1782 10.0249 15.1782ZM6.60281 21.7639V23.6757C6.60281 23.8547 6.45755 24 6.27848 24C6.09942 24 5.95416 23.8547 5.95416 23.6757V21.7639C5.95416 21.2084 5.31816 20.9675 4.93894 20.8735C3.8325 20.5992 2.73159 20.5986 1.66655 20.8729C1.20202 20.9922 0.648609 21.2438 0.648609 21.7639V23.6757C0.648609 23.8547 0.503344 24 0.324281 24C0.145219 24 0 23.8547 0 23.6757V21.7639C0 21.0338 0.534422 20.4943 1.50487 20.2445C1.83492 20.1597 2.1682 20.1015 2.50341 20.0645C1.98787 19.7099 1.63748 19.0232 1.63748 18.2356C1.63748 17.1757 2.27494 16.5171 3.30131 16.5171C4.32769 16.5171 4.96537 17.1757 4.96537 18.2356C4.96537 19.0246 4.61381 19.7125 4.09669 20.0666C4.42884 20.1037 4.7618 20.1613 5.09522 20.2439C6.0532 20.4816 6.60281 21.0357 6.60281 21.7639ZM2.28609 18.2356C2.28609 19.0144 2.75105 19.6721 3.30131 19.6721C3.85177 19.6721 4.31672 19.0143 4.31672 18.2356C4.31672 17.3513 3.76458 17.1658 3.30131 17.1658C2.83828 17.1658 2.28609 17.3513 2.28609 18.2356ZM15.3013 21.7639V23.6757C15.3013 23.8547 15.156 24 14.977 24C14.7979 24 14.6527 23.8547 14.6527 23.6757V21.7639C14.6527 21.2084 14.0167 20.9675 13.6374 20.8735C12.5314 20.5992 11.4303 20.5986 10.3653 20.8729C9.90075 20.9922 9.34734 21.2437 9.34734 21.7639V23.6757C9.34734 23.8547 9.20208 24 9.02302 24C8.84395 24 8.69869 23.8547 8.69869 23.6757V21.7639C8.69869 21.0338 9.23311 20.4941 10.2036 20.2445C10.5336 20.1597 10.8668 20.1015 11.202 20.0645C10.6864 19.7099 10.336 19.0232 10.336 18.2356C10.336 17.1757 10.9737 16.5171 12 16.5171C13.0264 16.5171 13.6641 17.1757 13.6641 18.2356C13.6641 19.0246 13.3125 19.7125 12.7954 20.0666C13.1273 20.1037 13.4603 20.1613 13.7937 20.2439C14.7517 20.4816 15.3013 21.0357 15.3013 21.7639ZM10.9846 18.2356C10.9846 19.0144 11.4495 19.6721 12 19.6721C12.5505 19.6721 13.0154 19.0143 13.0154 18.2356C13.0154 17.3513 12.4633 17.1658 12 17.1658C11.5367 17.1658 10.9846 17.3513 10.9846 18.2356ZM24 21.7639V23.6757C24 23.8547 23.8547 24 23.6757 24C23.4966 24 23.3513 23.8547 23.3513 23.6757V21.7639C23.3513 21.2084 22.7153 20.9675 22.3361 20.8735C21.2301 20.5992 20.1285 20.5986 19.0637 20.8729C18.5992 20.9922 18.0458 21.2438 18.0458 21.7639V23.6757C18.0458 23.8547 17.9005 24 17.7215 24C17.5424 24 17.3971 23.8547 17.3971 23.6757V21.7639C17.3971 21.0338 17.9316 20.4943 18.902 20.2445C19.2321 20.1597 19.5653 20.1015 19.9005 20.0644C19.3849 19.7098 19.0346 19.0231 19.0346 18.2357C19.0346 17.1757 19.6723 16.5172 20.6987 16.5172C21.7251 16.5172 22.3625 17.1758 22.3625 18.2357C22.3625 19.0245 22.011 19.7123 21.4941 20.0665C21.8261 20.1036 22.1591 20.1613 22.4924 20.2439C23.4504 20.4816 24 21.0357 24 21.7639ZM19.6833 18.2356C19.6833 19.0144 20.1482 19.6721 20.6987 19.6721C21.249 19.6721 21.7139 19.0143 21.7139 18.2356C21.7139 17.3513 21.1618 17.1658 20.6987 17.1658C20.2354 17.1658 19.6833 17.3513 19.6833 18.2356ZM8.06948 8.3505C7.99791 8.35706 7.92548 8.3602 7.85283 8.3602C7.21284 8.3602 6.5363 8.11444 6.00867 7.68928C5.50763 7.85934 4.98019 7.94541 4.43794 7.94541C1.99092 7.94541 0 6.16331 0 3.97275C0 1.78219 1.99092 0 4.43794 0C6.88495 0 8.87588 1.78219 8.87588 3.97275C8.87588 5.0168 8.41261 6.02245 7.59759 6.76275C7.704 7.06205 7.93416 7.41455 8.28427 7.81364C8.3647 7.90547 8.38688 8.03461 8.3415 8.148C8.29603 8.2613 8.19108 8.33962 8.06948 8.3505ZM7.32938 7.64053C7.10789 7.30861 6.97041 7.00275 6.91238 6.71559C6.8887 6.59798 6.93178 6.47691 7.02469 6.40078C7.80005 5.76469 8.22717 4.90237 8.22717 3.9728C8.22717 2.1398 6.5272 0.648703 4.43789 0.648703C2.34858 0.648703 0.648656 2.1398 0.648656 3.97275C0.648656 5.80561 2.34863 7.29675 4.43794 7.29675C4.9673 7.29675 5.47931 7.20267 5.96011 7.01719C5.99813 7.00261 6.03759 6.99544 6.07687 6.99544C6.15731 6.99544 6.2363 7.0253 6.29733 7.08192C6.61931 7.38047 6.98944 7.55395 7.32938 7.64053ZM7.16681 4.17998C7.16681 4.00083 7.02155 3.85566 6.84248 3.85566H6.01181C5.83275 3.85566 5.68748 4.00083 5.68748 4.17998C5.68748 4.35914 5.83275 4.50431 6.01181 4.50431H6.84248C7.02155 4.50431 7.16681 4.35914 7.16681 4.17998ZM4.85325 3.8557H4.02258C3.84352 3.8557 3.69825 4.00087 3.69825 4.18003C3.69825 4.35919 3.84352 4.50436 4.02258 4.50436H4.85325C5.03231 4.50436 5.17758 4.35919 5.17758 4.18003C5.17758 4.00087 5.03231 3.8557 4.85325 3.8557ZM2.86425 3.8557H2.03358C1.85452 3.8557 1.70925 4.00087 1.70925 4.18003C1.70925 4.35919 1.85452 4.50436 2.03358 4.50436H2.86425C3.04331 4.50436 3.18858 4.35919 3.18858 4.18003C3.18858 4.00087 3.04327 3.8557 2.86425 3.8557ZM24 1.06875V8.69377C24 9.28298 23.5207 9.76237 22.9314 9.76237H18.8965C18.536 10.2189 18.175 10.5593 18.144 10.5883C17.1003 11.5606 15.918 12.1796 14.9134 12.2922L14.909 14.8545C14.9085 15.0333 14.7635 15.1782 14.5846 15.1782C14.5844 15.1782 14.5842 15.1782 14.584 15.1782C14.4049 15.1777 14.2601 15.0325 14.2603 14.8532L14.2654 11.9858C14.2658 11.8069 14.4109 11.662 14.5897 11.662H14.591C15.4848 11.662 16.6765 11.0688 17.7018 10.1136C18.2782 9.57694 19.0496 8.58937 18.9985 8.13098C18.9913 8.06752 18.9693 8.01516 18.8847 7.96584C18.58 7.78847 18.4256 7.84748 18.2753 7.9995C18.095 8.18213 17.9193 8.37661 17.7491 8.56462C16.9542 9.44419 16.1319 10.3536 14.6131 10.3536H10.3388C9.60867 10.3536 8.5973 10.807 8.5973 11.6584V14.8538C8.5973 15.0329 8.45203 15.1781 8.27297 15.1781C8.09391 15.1781 7.94864 15.0329 7.94864 14.8538V11.6584C7.94864 10.4518 9.18933 9.70495 10.3388 9.70495H11.4174C10.6081 9.3292 10.028 8.34689 10.028 7.19367C10.028 5.84475 10.8382 5.00672 12.1423 5.00672C13.4463 5.00672 14.2565 5.84475 14.2565 7.19367C14.2565 8.34689 13.6764 9.3292 12.8671 9.70495H14.6131C15.5231 9.70495 16.1208 9.30539 16.6797 8.75573V1.06875C16.6797 0.479437 17.159 0 17.7483 0H22.9313C23.5207 0 24 0.479391 24 1.06875ZM12.1423 9.22191C12.9504 9.22191 13.6079 8.31206 13.6079 7.19372C13.6079 5.85525 12.6896 5.65538 12.1423 5.65538C11.595 5.65538 10.6767 5.85525 10.6767 7.19372C10.6767 8.31206 11.3342 9.22191 12.1423 9.22191ZM23.3513 1.06875C23.3513 0.837141 23.163 0.648656 22.9314 0.648656H17.7483C17.5167 0.648656 17.3284 0.837094 17.3284 1.06875V8.06367C17.4846 7.89103 17.645 7.71497 17.8138 7.54392C18.0862 7.26783 18.5499 7.02028 19.2112 7.4055C19.4625 7.55184 19.6117 7.77787 19.6432 8.05912C19.6796 8.38575 19.5433 8.75737 19.3407 9.11372H22.9314C23.163 9.11372 23.3513 8.92537 23.3513 8.69377V1.06875ZM21.9776 2.07117C21.7986 2.07117 21.6533 2.21634 21.6533 2.3955V5.80912C21.6533 5.98828 21.7986 6.13345 21.9776 6.13345C22.1567 6.13345 22.302 5.98828 22.302 5.80912V2.3955C22.302 2.21634 22.1567 2.07117 21.9776 2.07117ZM20.3397 3.18558C20.1607 3.18558 20.0154 3.33075 20.0154 3.50991V5.80912C20.0154 5.98828 20.1607 6.13345 20.3397 6.13345C20.5188 6.13345 20.664 5.98828 20.664 5.80912V3.50991C20.664 3.33075 20.5188 3.18558 20.3397 3.18558ZM18.702 4.1992C18.523 4.1992 18.3777 4.34438 18.3777 4.52353V5.80912C18.3777 5.98828 18.523 6.13345 18.702 6.13345C18.8811 6.13345 19.0264 5.98828 19.0264 5.80912V4.52353C19.0264 4.34438 18.8811 4.1992 18.702 4.1992Z" fill="#1A3D6F"/>
</g>
<defs>
<clipPath id="clip0">
<rect width="24" height="24" fill="white"/>
</clipPath>
</defs>
</svg>
