<svg width="24" height="24" viewBox="0 0 24 24" fill="none" xmlns="http://www.w3.org/2000/svg">
<path d="M11.7194 1.50556C10.1882 1.59292 8.74693 2.25715 7.68578 3.3645C6.62462 4.47186 6.02239 5.94012 6.00032 7.47368C5.99492 8.57481 6.29336 9.65609 6.86281 10.5986C7.50422 11.6188 8.04752 12.6975 8.48544 13.8202L9.39856 16.2577C9.4257 16.3289 9.4739 16.3902 9.53674 16.4333C9.59958 16.4765 9.67408 16.4994 9.75031 16.4992H14.2503C14.3266 16.4993 14.4012 16.476 14.464 16.4326C14.5268 16.3892 14.5748 16.3276 14.6017 16.2562L15.5077 13.8397C15.8832 12.7812 16.3812 11.7702 16.9916 10.8273C17.6072 9.90393 17.9546 8.8279 17.9953 7.71887C18.0359 6.60984 17.7682 5.51126 17.2219 4.54528C16.6756 3.57929 15.872 2.78376 14.9006 2.24713C13.9292 1.71049 12.828 1.45379 11.7194 1.50556ZM10.8753 8.99918H10.5003C10.4261 8.99918 10.3536 8.97719 10.292 8.93598C10.2303 8.89478 10.1822 8.83621 10.1539 8.76769C10.1255 8.69916 10.118 8.62376 10.1325 8.55102C10.147 8.47828 10.1827 8.41146 10.2351 8.35902C10.2876 8.30657 10.3544 8.27086 10.4272 8.25639C10.4999 8.24192 10.5753 8.24934 10.6438 8.27773C10.7123 8.30611 10.7709 8.35417 10.8121 8.41584C10.8533 8.47751 10.8753 8.55001 10.8753 8.62418V8.99918ZM11.6253 15.7492V9.74918H12.3753V15.7492H11.6253ZM16.3679 10.4107C15.7257 11.4015 15.2011 12.4638 14.8049 13.5761L13.9904 15.7492H13.1253V9.74918H13.5003C13.7228 9.74918 13.9403 9.6832 14.1253 9.55958C14.3103 9.43597 14.4545 9.26027 14.5397 9.0547C14.6248 8.84913 14.6471 8.62293 14.6037 8.4047C14.5603 8.18648 14.4531 7.98602 14.2958 7.82869C14.1385 7.67135 13.938 7.56421 13.7198 7.5208C13.5016 7.47739 13.2754 7.49967 13.0698 7.58482C12.8642 7.66996 12.6885 7.81416 12.5649 7.99916C12.4413 8.18417 12.3753 8.40168 12.3753 8.62418V8.99918H11.6253V8.62418C11.6253 8.40168 11.5593 8.18417 11.4357 7.99916C11.3121 7.81416 11.1364 7.66996 10.9308 7.58482C10.7253 7.49967 10.4991 7.47739 10.2808 7.5208C10.0626 7.56421 9.86215 7.67135 9.70482 7.82869C9.54748 7.98602 9.44034 8.18648 9.39693 8.4047C9.35352 8.62293 9.3758 8.84913 9.46095 9.0547C9.5461 9.26027 9.69029 9.43597 9.8753 9.55958C10.0603 9.6832 10.2778 9.74918 10.5003 9.74918H10.8753V15.7492H10.0102L9.18781 13.5566C8.7336 12.3904 8.16996 11.2699 7.50444 10.2101C7.0065 9.38548 6.74556 8.43956 6.75032 7.47631C6.76983 6.13467 7.2968 4.85021 8.22515 3.88143C9.15351 2.91265 10.4143 2.33146 11.7539 2.25481C12.7238 2.20972 13.6871 2.43445 14.5369 2.90402C15.3867 3.37359 16.0896 4.06961 16.5676 4.91471C17.0455 5.75982 17.2797 6.7209 17.2442 7.69114C17.2087 8.66138 16.9049 9.60277 16.3664 10.4107H16.3679ZM13.1253 8.99918V8.62418C13.1253 8.55001 13.1473 8.47751 13.1885 8.41584C13.2297 8.35417 13.2883 8.30611 13.3568 8.27773C13.4253 8.24934 13.5007 8.24192 13.5735 8.25639C13.6462 8.27086 13.713 8.30657 13.7655 8.35902C13.8179 8.41146 13.8536 8.47828 13.8681 8.55102C13.8826 8.62376 13.8751 8.69916 13.8468 8.76769C13.8184 8.83621 13.7703 8.89478 13.7086 8.93598C13.647 8.97719 13.5745 8.99918 13.5003 8.99918H13.1253Z" fill="white"/>
<path d="M11.7896 3.00417C11.2973 3.02678 10.8124 3.13239 10.3552 3.31654L10.635 4.01216C11.014 3.85959 11.416 3.77211 11.8241 3.75341C12.5467 3.72134 13.2632 3.8985 13.8876 4.26361C14.5121 4.62873 15.0178 5.1663 15.3442 5.81179L16.0136 5.47429C15.621 4.70049 15.0139 4.05609 14.2649 3.61807C13.5158 3.18004 12.6565 2.96692 11.7896 3.00417Z" fill="white"/>
<path d="M15.7347 7.17591L16.4817 7.10841C16.4562 6.82451 16.4039 6.54365 16.3257 6.26953L15.6042 6.47541C15.6695 6.70433 15.7132 6.93885 15.7347 7.17591Z" fill="white"/>
<path d="M14.25 17.25H9.75C9.65054 17.25 9.55516 17.2895 9.48483 17.3598C9.41451 17.4302 9.375 17.5255 9.375 17.625C9.375 17.7245 9.41451 17.8198 9.48483 17.8902C9.55516 17.9605 9.65054 18 9.75 18H14.25C14.3495 18 14.4448 17.9605 14.5152 17.8902C14.5855 17.8198 14.625 17.7245 14.625 17.625C14.625 17.5255 14.5855 17.4302 14.5152 17.3598C14.4448 17.2895 14.3495 17.25 14.25 17.25Z" fill="white"/>
<path d="M14.25 18.75H9.75C9.65054 18.75 9.55516 18.7895 9.48483 18.8598C9.41451 18.9302 9.375 19.0255 9.375 19.125C9.375 19.2245 9.41451 19.3198 9.48483 19.3902C9.55516 19.4605 9.65054 19.5 9.75 19.5H14.25C14.3495 19.5 14.4448 19.4605 14.5152 19.3902C14.5855 19.3198 14.625 19.2245 14.625 19.125C14.625 19.0255 14.5855 18.9302 14.5152 18.8598C14.4448 18.7895 14.3495 18.75 14.25 18.75Z" fill="white"/>
<path d="M14.25 20.25H9.75C9.65054 20.25 9.55516 20.2895 9.48483 20.3598C9.41451 20.4302 9.375 20.5255 9.375 20.625C9.375 20.7245 9.41451 20.8198 9.48483 20.8902C9.55516 20.9605 9.65054 21 9.75 21H10.1625C10.2486 21.4239 10.4785 21.8049 10.8134 22.0786C11.1483 22.3524 11.5675 22.5019 12 22.5019C12.4325 22.5019 12.8517 22.3524 13.1866 22.0786C13.5215 21.8049 13.7514 21.4239 13.8375 21H14.25C14.3495 21 14.4448 20.9605 14.5152 20.8902C14.5855 20.8198 14.625 20.7245 14.625 20.625C14.625 20.5255 14.5855 20.4302 14.5152 20.3598C14.4448 20.2895 14.3495 20.25 14.25 20.25ZM12 21.75C11.7682 21.749 11.5423 21.6765 11.3532 21.5422C11.1642 21.408 11.0213 21.2186 10.944 21H13.056C12.9787 21.2186 12.8358 21.408 12.6468 21.5422C12.4577 21.6765 12.2318 21.749 12 21.75Z" fill="white"/>
<path d="M22.125 6.375H19.875C19.7755 6.375 19.6802 6.41451 19.6098 6.48483C19.5395 6.55516 19.5 6.65054 19.5 6.75C19.5 6.84946 19.5395 6.94484 19.6098 7.01517C19.6802 7.08549 19.7755 7.125 19.875 7.125H22.125C22.2245 7.125 22.3198 7.08549 22.3902 7.01517C22.4605 6.94484 22.5 6.84946 22.5 6.75C22.5 6.65054 22.4605 6.55516 22.3902 6.48483C22.3198 6.41451 22.2245 6.375 22.125 6.375Z" fill="white"/>
<path d="M22.2928 9.78855L20.0428 8.66355C19.9538 8.6191 19.8507 8.61182 19.7564 8.64333C19.662 8.67483 19.584 8.74254 19.5395 8.83155C19.4951 8.92057 19.4878 9.0236 19.5193 9.11797C19.5508 9.21235 19.6185 9.29035 19.7075 9.3348L21.9575 10.4598C22.0016 10.4818 22.0496 10.4949 22.0987 10.4984C22.1479 10.5019 22.1972 10.4956 22.2439 10.48C22.2907 10.4644 22.3339 10.4398 22.3711 10.4075C22.4083 10.3752 22.4388 10.3359 22.4608 10.2918C22.4828 10.2477 22.4959 10.1997 22.4994 10.1506C22.5029 10.1015 22.4966 10.0521 22.481 10.0054C22.4654 9.95865 22.4408 9.91545 22.4085 9.87825C22.3762 9.84104 22.3369 9.81056 22.2928 9.78855Z" fill="white"/>
<path d="M19.5396 4.6668C19.5616 4.71089 19.5921 4.75021 19.6293 4.78252C19.6665 4.81483 19.7097 4.83949 19.7564 4.85509C19.8031 4.87069 19.8525 4.87693 19.9016 4.87345C19.9508 4.86997 19.9988 4.85684 20.0428 4.8348L22.2928 3.7098C22.3369 3.68779 22.3762 3.65731 22.4085 3.62011C22.4408 3.5829 22.4655 3.5397 22.4811 3.49297C22.4967 3.44624 22.5029 3.3969 22.4994 3.34775C22.496 3.29861 22.4829 3.25063 22.4608 3.20655C22.4388 3.16248 22.4084 3.12317 22.3712 3.09088C22.3339 3.05858 22.2907 3.03393 22.244 3.01833C22.1973 3.00273 22.1479 2.99648 22.0988 2.99996C22.0497 3.00343 22.0017 3.01654 21.9576 3.03855L19.7076 4.16355C19.6635 4.18555 19.6242 4.21602 19.5919 4.25322C19.5596 4.29042 19.5349 4.33363 19.5193 4.38036C19.5037 4.4271 19.4975 4.47645 19.5009 4.5256C19.5044 4.57475 19.5176 4.62273 19.5396 4.6668Z" fill="white"/>
<path d="M4.125 6.375H1.875C1.77554 6.375 1.68016 6.41451 1.60984 6.48483C1.53951 6.55516 1.5 6.65054 1.5 6.75C1.5 6.84946 1.53951 6.94484 1.60984 7.01517C1.68016 7.08549 1.77554 7.125 1.875 7.125H4.125C4.22446 7.125 4.31984 7.08549 4.39016 7.01517C4.46049 6.94484 4.5 6.84946 4.5 6.75C4.5 6.65054 4.46049 6.55516 4.39016 6.48483C4.31984 6.41451 4.22446 6.375 4.125 6.375Z" fill="white"/>
<path d="M3.95753 8.66355L1.70753 9.78855C1.61852 9.83301 1.55081 9.91101 1.51931 10.0054C1.4878 10.0998 1.49507 10.2028 1.53953 10.2918C1.58399 10.3808 1.66199 10.4485 1.75636 10.48C1.85074 10.5115 1.95377 10.5043 2.04278 10.4598L4.29278 9.3348C4.38179 9.29035 4.4495 9.21235 4.48101 9.11797C4.51251 9.0236 4.50524 8.92057 4.46078 8.83155C4.41632 8.74254 4.33833 8.67483 4.24395 8.64333C4.14957 8.61182 4.04655 8.6191 3.95753 8.66355Z" fill="white"/>
<path d="M3.95753 4.83676C4.04655 4.88122 4.14957 4.88849 4.24395 4.85699C4.33833 4.82548 4.41632 4.75777 4.46078 4.66876C4.50524 4.57975 4.51251 4.47672 4.48101 4.38234C4.4495 4.28796 4.38179 4.20997 4.29278 4.16551L2.04278 3.04051C1.95377 2.99605 1.85074 2.98878 1.75636 3.02028C1.66199 3.05179 1.58399 3.1195 1.53953 3.20851C1.49507 3.29752 1.4878 3.40055 1.51931 3.49493C1.55081 3.58931 1.61852 3.6673 1.70753 3.71176L3.95753 4.83676Z" fill="white"/>
</svg>
